M48
; DRILL file {KiCad 9.0.6} date 2025-11-22T22:40:06-0800
; FORMAT={-:-/ absolute / metric / decimal}
; #@! TF.CreationDate,2025-11-22T22:40:06-08:00
; #@! TF.GenerationSoftware,Kicad,Pcbnew,9.0.6
; #@! TF.FileFunction,Plated,1,2,PTH
FMAT,2
METRIC
; #@! TA.AperFunction,Plated,PTH,ViaDrill
T1C0.300
; #@! TA.AperFunction,Plated,PTH,ComponentDrill
T2C0.500
; #@! TA.AperFunction,Plated,PTH,ComponentDrill
T3C1.000
%
G90
G05
T1
X150.5Y-105.0
X156.5Y-105.0
X168.0Y-107.0
X170.73Y-109.73
X171.5Y-97.5
X171.5Y-115.5
X173.6Y-104.8
X175.7Y-98.3
X179.3Y-97.3
X182.4Y-99.1
X185.0Y-109.0
X187.6Y-71.8
X205.5Y-105.5
X208.5Y-116.5
X214.5Y-110.1
X217.5Y-84.8
X219.5Y-73.5
T2
X149.6Y-69.3
X179.6Y-107.6
T3
X144.8Y-72.0
X144.8Y-74.54
X144.8Y-77.08
X144.8Y-79.62
X144.8Y-82.16
X144.8Y-84.7
X157.5Y-72.0
X157.5Y-74.54
X157.5Y-77.08
X157.5Y-79.62
X157.5Y-82.16
X157.5Y-84.7
X163.23Y-109.73
X163.5Y-114.5
X165.77Y-109.73
X166.0Y-102.5
X166.04Y-114.5
X168.31Y-109.73
X168.54Y-102.5
X168.58Y-114.5
X171.08Y-102.5
X173.5Y-74.0
X173.62Y-102.5
X176.04Y-74.0
X176.16Y-82.18
X176.16Y-102.5
X178.58Y-74.0
X178.7Y-82.18
X178.7Y-102.5
X181.24Y-82.18
X181.24Y-102.5
X183.78Y-82.18
X183.78Y-102.5
X186.32Y-82.18
X186.32Y-102.5
X188.86Y-82.18
X188.86Y-102.5
X191.4Y-82.18
X191.4Y-102.5
X193.94Y-82.18
X193.94Y-102.5
X196.48Y-82.18
X196.48Y-102.5
X199.02Y-82.18
X199.02Y-102.5
X201.56Y-82.18
X201.56Y-102.5
X204.1Y-82.18
X204.1Y-102.5
X205.5Y-113.69
X205.5Y-116.23
X205.5Y-118.77
X205.5Y-121.31
X214.5Y-114.0
X214.5Y-116.54
X214.5Y-119.08
X221.7Y-84.71
X221.7Y-87.25
X221.7Y-89.79
X221.7Y-92.33
X221.7Y-94.87
X221.7Y-97.41
X221.7Y-99.95
X221.7Y-102.49
M30
