%TF.GenerationSoftware,KiCad,Pcbnew,9.0.6*%
%TF.CreationDate,2025-11-22T22:40:18-08:00*%
%TF.ProjectId,A_Team_ECE411,415f5465-616d-45f4-9543-453431312e6b,4*%
%TF.SameCoordinates,Original*%
%TF.FileFunction,Soldermask,Top*%
%TF.FilePolarity,Negative*%
%FSLAX46Y46*%
G04 Gerber Fmt 4.6, Leading zero omitted, Abs format (unit mm)*
G04 Created by KiCad (PCBNEW 9.0.6) date 2025-11-22 22:40:18*
%MOMM*%
%LPD*%
G01*
G04 APERTURE LIST*
G04 Aperture macros list*
%AMRoundRect*
0 Rectangle with rounded corners*
0 $1 Rounding radius*
0 $2 $3 $4 $5 $6 $7 $8 $9 X,Y pos of 4 corners*
0 Add a 4 corners polygon primitive as box body*
4,1,4,$2,$3,$4,$5,$6,$7,$8,$9,$2,$3,0*
0 Add four circle primitives for the rounded corners*
1,1,$1+$1,$2,$3*
1,1,$1+$1,$4,$5*
1,1,$1+$1,$6,$7*
1,1,$1+$1,$8,$9*
0 Add four rect primitives between the rounded corners*
20,1,$1+$1,$2,$3,$4,$5,0*
20,1,$1+$1,$4,$5,$6,$7,0*
20,1,$1+$1,$6,$7,$8,$9,0*
20,1,$1+$1,$8,$9,$2,$3,0*%
G04 Aperture macros list end*
%ADD10R,1.700000X1.700000*%
%ADD11C,1.700000*%
%ADD12RoundRect,0.250000X-0.412500X-0.650000X0.412500X-0.650000X0.412500X0.650000X-0.412500X0.650000X0*%
%ADD13RoundRect,0.250000X0.550000X-1.050000X0.550000X1.050000X-0.550000X1.050000X-0.550000X-1.050000X0*%
%ADD14O,1.600000X2.600000*%
%ADD15R,1.000000X1.000000*%
G04 APERTURE END LIST*
D10*
%TO.C,U2*%
X221700000Y-102490000D03*
D11*
X221700000Y-99950000D03*
X221700000Y-97410000D03*
X221700000Y-94870000D03*
X221700000Y-92330000D03*
X221700000Y-89790000D03*
X221700000Y-87250000D03*
X221700000Y-84710000D03*
%TD*%
D10*
%TO.C,JP2*%
X144800000Y-84700000D03*
D11*
X144800000Y-82160000D03*
X144800000Y-79620000D03*
X144800000Y-77080000D03*
X144800000Y-74540000D03*
X144800000Y-72000000D03*
%TD*%
D12*
%TO.C,C1*%
X152137500Y-116400000D03*
X155262500Y-116400000D03*
%TD*%
D10*
%TO.C,D4*%
X163500000Y-114500000D03*
D11*
X166040000Y-114500000D03*
X168580000Y-114500000D03*
%TD*%
D12*
%TO.C,C3*%
X171800000Y-120800000D03*
X174925000Y-120800000D03*
%TD*%
D13*
%TO.C,A1*%
X166000000Y-102200000D03*
D14*
X168540000Y-102200000D03*
X171080000Y-102200000D03*
X173620000Y-102200000D03*
X176160000Y-102200000D03*
X178700000Y-102200000D03*
X181240000Y-102200000D03*
X183780000Y-102200000D03*
X186320000Y-102200000D03*
X188860000Y-102200000D03*
X191400000Y-102200000D03*
X193940000Y-102200000D03*
X196480000Y-102200000D03*
X199020000Y-102200000D03*
X201560000Y-102200000D03*
X204100000Y-102200000D03*
X204100000Y-82480000D03*
X201560000Y-82480000D03*
X199020000Y-82480000D03*
X196480000Y-82480000D03*
X193940000Y-82480000D03*
X191400000Y-82480000D03*
X188860000Y-82480000D03*
X186320000Y-82480000D03*
X183780000Y-82480000D03*
X181240000Y-82480000D03*
X178700000Y-82480000D03*
X176160000Y-82480000D03*
%TD*%
D15*
%TO.C,TP1*%
X149600000Y-69300000D03*
%TD*%
D10*
%TO.C,D1*%
X163230000Y-109730000D03*
D11*
X165770000Y-109730000D03*
X168310000Y-109730000D03*
%TD*%
D15*
%TO.C,TP2*%
X179600000Y-107600000D03*
%TD*%
D10*
%TO.C,SW2*%
X173500000Y-74000000D03*
D11*
X176040000Y-74000000D03*
X178580000Y-74000000D03*
%TD*%
D10*
%TO.C,IC1*%
X205500000Y-113690000D03*
D11*
X205500000Y-116230000D03*
X205500000Y-118770000D03*
X205500000Y-121310000D03*
%TD*%
%TO.C,SW1*%
X214500000Y-116540000D03*
X214500000Y-119080000D03*
D10*
X214500000Y-114000000D03*
%TD*%
D12*
%TO.C,C2*%
X184818750Y-121181250D03*
X187943750Y-121181250D03*
%TD*%
D10*
%TO.C,JP3*%
X157500000Y-72000000D03*
D11*
X157500000Y-74540000D03*
X157500000Y-77080000D03*
X157500000Y-79620000D03*
X157500000Y-82160000D03*
X157500000Y-84700000D03*
%TD*%
M02*
