%TF.GenerationSoftware,KiCad,Pcbnew,9.0.6*%
%TF.CreationDate,2025-11-22T22:40:18-08:00*%
%TF.ProjectId,A_Team_ECE411,415f5465-616d-45f4-9543-453431312e6b,4*%
%TF.SameCoordinates,Original*%
%TF.FileFunction,Legend,Top*%
%TF.FilePolarity,Positive*%
%FSLAX46Y46*%
G04 Gerber Fmt 4.6, Leading zero omitted, Abs format (unit mm)*
G04 Created by KiCad (PCBNEW 9.0.6) date 2025-11-22 22:40:18*
%MOMM*%
%LPD*%
G01*
G04 APERTURE LIST*
%ADD10C,0.100000*%
%ADD11C,0.150000*%
%ADD12C,0.120000*%
G04 APERTURE END LIST*
D10*
X143052531Y-123838972D02*
X143052531Y-123267544D01*
X144052531Y-123553258D02*
X143052531Y-123553258D01*
X144004912Y-122553258D02*
X144052531Y-122648496D01*
X144052531Y-122648496D02*
X144052531Y-122838972D01*
X144052531Y-122838972D02*
X144004912Y-122934210D01*
X144004912Y-122934210D02*
X143909673Y-122981829D01*
X143909673Y-122981829D02*
X143528721Y-122981829D01*
X143528721Y-122981829D02*
X143433483Y-122934210D01*
X143433483Y-122934210D02*
X143385864Y-122838972D01*
X143385864Y-122838972D02*
X143385864Y-122648496D01*
X143385864Y-122648496D02*
X143433483Y-122553258D01*
X143433483Y-122553258D02*
X143528721Y-122505639D01*
X143528721Y-122505639D02*
X143623959Y-122505639D01*
X143623959Y-122505639D02*
X143719197Y-122981829D01*
X144052531Y-121648496D02*
X143528721Y-121648496D01*
X143528721Y-121648496D02*
X143433483Y-121696115D01*
X143433483Y-121696115D02*
X143385864Y-121791353D01*
X143385864Y-121791353D02*
X143385864Y-121981829D01*
X143385864Y-121981829D02*
X143433483Y-122077067D01*
X144004912Y-121648496D02*
X144052531Y-121743734D01*
X144052531Y-121743734D02*
X144052531Y-121981829D01*
X144052531Y-121981829D02*
X144004912Y-122077067D01*
X144004912Y-122077067D02*
X143909673Y-122124686D01*
X143909673Y-122124686D02*
X143814435Y-122124686D01*
X143814435Y-122124686D02*
X143719197Y-122077067D01*
X143719197Y-122077067D02*
X143671578Y-121981829D01*
X143671578Y-121981829D02*
X143671578Y-121743734D01*
X143671578Y-121743734D02*
X143623959Y-121648496D01*
X144052531Y-121172305D02*
X143385864Y-121172305D01*
X143481102Y-121172305D02*
X143433483Y-121124686D01*
X143433483Y-121124686D02*
X143385864Y-121029448D01*
X143385864Y-121029448D02*
X143385864Y-120886591D01*
X143385864Y-120886591D02*
X143433483Y-120791353D01*
X143433483Y-120791353D02*
X143528721Y-120743734D01*
X143528721Y-120743734D02*
X144052531Y-120743734D01*
X143528721Y-120743734D02*
X143433483Y-120696115D01*
X143433483Y-120696115D02*
X143385864Y-120600877D01*
X143385864Y-120600877D02*
X143385864Y-120458020D01*
X143385864Y-120458020D02*
X143433483Y-120362781D01*
X143433483Y-120362781D02*
X143528721Y-120315162D01*
X143528721Y-120315162D02*
X144052531Y-120315162D01*
X144052531Y-118553258D02*
X144052531Y-119124686D01*
X144052531Y-118838972D02*
X143052531Y-118838972D01*
X143052531Y-118838972D02*
X143195388Y-118934210D01*
X143195388Y-118934210D02*
X143290626Y-119029448D01*
X143290626Y-119029448D02*
X143338245Y-119124686D01*
X144662475Y-123838972D02*
X145662475Y-123505639D01*
X145662475Y-123505639D02*
X144662475Y-123172306D01*
X145662475Y-122315163D02*
X145662475Y-122886591D01*
X145662475Y-122600877D02*
X144662475Y-122600877D01*
X144662475Y-122600877D02*
X144805332Y-122696115D01*
X144805332Y-122696115D02*
X144900570Y-122791353D01*
X144900570Y-122791353D02*
X144948189Y-122886591D01*
X147272419Y-123696115D02*
X146272419Y-123696115D01*
X146272419Y-123696115D02*
X147272419Y-123124687D01*
X147272419Y-123124687D02*
X146272419Y-123124687D01*
X147272419Y-122505639D02*
X147224800Y-122600877D01*
X147224800Y-122600877D02*
X147177180Y-122648496D01*
X147177180Y-122648496D02*
X147081942Y-122696115D01*
X147081942Y-122696115D02*
X146796228Y-122696115D01*
X146796228Y-122696115D02*
X146700990Y-122648496D01*
X146700990Y-122648496D02*
X146653371Y-122600877D01*
X146653371Y-122600877D02*
X146605752Y-122505639D01*
X146605752Y-122505639D02*
X146605752Y-122362782D01*
X146605752Y-122362782D02*
X146653371Y-122267544D01*
X146653371Y-122267544D02*
X146700990Y-122219925D01*
X146700990Y-122219925D02*
X146796228Y-122172306D01*
X146796228Y-122172306D02*
X147081942Y-122172306D01*
X147081942Y-122172306D02*
X147177180Y-122219925D01*
X147177180Y-122219925D02*
X147224800Y-122267544D01*
X147224800Y-122267544D02*
X147272419Y-122362782D01*
X147272419Y-122362782D02*
X147272419Y-122505639D01*
X146605752Y-121838972D02*
X147272419Y-121600877D01*
X147272419Y-121600877D02*
X146605752Y-121362782D01*
X147177180Y-120981829D02*
X147224800Y-120934210D01*
X147224800Y-120934210D02*
X147272419Y-120981829D01*
X147272419Y-120981829D02*
X147224800Y-121029448D01*
X147224800Y-121029448D02*
X147177180Y-120981829D01*
X147177180Y-120981829D02*
X147272419Y-120981829D01*
X146367657Y-119791353D02*
X146320038Y-119743734D01*
X146320038Y-119743734D02*
X146272419Y-119648496D01*
X146272419Y-119648496D02*
X146272419Y-119410401D01*
X146272419Y-119410401D02*
X146320038Y-119315163D01*
X146320038Y-119315163D02*
X146367657Y-119267544D01*
X146367657Y-119267544D02*
X146462895Y-119219925D01*
X146462895Y-119219925D02*
X146558133Y-119219925D01*
X146558133Y-119219925D02*
X146700990Y-119267544D01*
X146700990Y-119267544D02*
X147272419Y-119838972D01*
X147272419Y-119838972D02*
X147272419Y-119219925D01*
X146272419Y-118600877D02*
X146272419Y-118505639D01*
X146272419Y-118505639D02*
X146320038Y-118410401D01*
X146320038Y-118410401D02*
X146367657Y-118362782D01*
X146367657Y-118362782D02*
X146462895Y-118315163D01*
X146462895Y-118315163D02*
X146653371Y-118267544D01*
X146653371Y-118267544D02*
X146891466Y-118267544D01*
X146891466Y-118267544D02*
X147081942Y-118315163D01*
X147081942Y-118315163D02*
X147177180Y-118362782D01*
X147177180Y-118362782D02*
X147224800Y-118410401D01*
X147224800Y-118410401D02*
X147272419Y-118505639D01*
X147272419Y-118505639D02*
X147272419Y-118600877D01*
X147272419Y-118600877D02*
X147224800Y-118696115D01*
X147224800Y-118696115D02*
X147177180Y-118743734D01*
X147177180Y-118743734D02*
X147081942Y-118791353D01*
X147081942Y-118791353D02*
X146891466Y-118838972D01*
X146891466Y-118838972D02*
X146653371Y-118838972D01*
X146653371Y-118838972D02*
X146462895Y-118791353D01*
X146462895Y-118791353D02*
X146367657Y-118743734D01*
X146367657Y-118743734D02*
X146320038Y-118696115D01*
X146320038Y-118696115D02*
X146272419Y-118600877D01*
X147224800Y-117791353D02*
X147272419Y-117791353D01*
X147272419Y-117791353D02*
X147367657Y-117838972D01*
X147367657Y-117838972D02*
X147415276Y-117886591D01*
X146367657Y-116648496D02*
X146320038Y-116600877D01*
X146320038Y-116600877D02*
X146272419Y-116505639D01*
X146272419Y-116505639D02*
X146272419Y-116267544D01*
X146272419Y-116267544D02*
X146320038Y-116172306D01*
X146320038Y-116172306D02*
X146367657Y-116124687D01*
X146367657Y-116124687D02*
X146462895Y-116077068D01*
X146462895Y-116077068D02*
X146558133Y-116077068D01*
X146558133Y-116077068D02*
X146700990Y-116124687D01*
X146700990Y-116124687D02*
X147272419Y-116696115D01*
X147272419Y-116696115D02*
X147272419Y-116077068D01*
X146272419Y-115458020D02*
X146272419Y-115362782D01*
X146272419Y-115362782D02*
X146320038Y-115267544D01*
X146320038Y-115267544D02*
X146367657Y-115219925D01*
X146367657Y-115219925D02*
X146462895Y-115172306D01*
X146462895Y-115172306D02*
X146653371Y-115124687D01*
X146653371Y-115124687D02*
X146891466Y-115124687D01*
X146891466Y-115124687D02*
X147081942Y-115172306D01*
X147081942Y-115172306D02*
X147177180Y-115219925D01*
X147177180Y-115219925D02*
X147224800Y-115267544D01*
X147224800Y-115267544D02*
X147272419Y-115362782D01*
X147272419Y-115362782D02*
X147272419Y-115458020D01*
X147272419Y-115458020D02*
X147224800Y-115553258D01*
X147224800Y-115553258D02*
X147177180Y-115600877D01*
X147177180Y-115600877D02*
X147081942Y-115648496D01*
X147081942Y-115648496D02*
X146891466Y-115696115D01*
X146891466Y-115696115D02*
X146653371Y-115696115D01*
X146653371Y-115696115D02*
X146462895Y-115648496D01*
X146462895Y-115648496D02*
X146367657Y-115600877D01*
X146367657Y-115600877D02*
X146320038Y-115553258D01*
X146320038Y-115553258D02*
X146272419Y-115458020D01*
X146367657Y-114743734D02*
X146320038Y-114696115D01*
X146320038Y-114696115D02*
X146272419Y-114600877D01*
X146272419Y-114600877D02*
X146272419Y-114362782D01*
X146272419Y-114362782D02*
X146320038Y-114267544D01*
X146320038Y-114267544D02*
X146367657Y-114219925D01*
X146367657Y-114219925D02*
X146462895Y-114172306D01*
X146462895Y-114172306D02*
X146558133Y-114172306D01*
X146558133Y-114172306D02*
X146700990Y-114219925D01*
X146700990Y-114219925D02*
X147272419Y-114791353D01*
X147272419Y-114791353D02*
X147272419Y-114172306D01*
X146272419Y-113267544D02*
X146272419Y-113743734D01*
X146272419Y-113743734D02*
X146748609Y-113791353D01*
X146748609Y-113791353D02*
X146700990Y-113743734D01*
X146700990Y-113743734D02*
X146653371Y-113648496D01*
X146653371Y-113648496D02*
X146653371Y-113410401D01*
X146653371Y-113410401D02*
X146700990Y-113315163D01*
X146700990Y-113315163D02*
X146748609Y-113267544D01*
X146748609Y-113267544D02*
X146843847Y-113219925D01*
X146843847Y-113219925D02*
X147081942Y-113219925D01*
X147081942Y-113219925D02*
X147177180Y-113267544D01*
X147177180Y-113267544D02*
X147224800Y-113315163D01*
X147224800Y-113315163D02*
X147272419Y-113410401D01*
X147272419Y-113410401D02*
X147272419Y-113648496D01*
X147272419Y-113648496D02*
X147224800Y-113743734D01*
X147224800Y-113743734D02*
X147177180Y-113791353D01*
D11*
X220938095Y-104324819D02*
X220938095Y-105134342D01*
X220938095Y-105134342D02*
X220985714Y-105229580D01*
X220985714Y-105229580D02*
X221033333Y-105277200D01*
X221033333Y-105277200D02*
X221128571Y-105324819D01*
X221128571Y-105324819D02*
X221319047Y-105324819D01*
X221319047Y-105324819D02*
X221414285Y-105277200D01*
X221414285Y-105277200D02*
X221461904Y-105229580D01*
X221461904Y-105229580D02*
X221509523Y-105134342D01*
X221509523Y-105134342D02*
X221509523Y-104324819D01*
X221938095Y-104420057D02*
X221985714Y-104372438D01*
X221985714Y-104372438D02*
X222080952Y-104324819D01*
X222080952Y-104324819D02*
X222319047Y-104324819D01*
X222319047Y-104324819D02*
X222414285Y-104372438D01*
X222414285Y-104372438D02*
X222461904Y-104420057D01*
X222461904Y-104420057D02*
X222509523Y-104515295D01*
X222509523Y-104515295D02*
X222509523Y-104610533D01*
X222509523Y-104610533D02*
X222461904Y-104753390D01*
X222461904Y-104753390D02*
X221890476Y-105324819D01*
X221890476Y-105324819D02*
X222509523Y-105324819D01*
X143966666Y-86534819D02*
X143966666Y-87249104D01*
X143966666Y-87249104D02*
X143919047Y-87391961D01*
X143919047Y-87391961D02*
X143823809Y-87487200D01*
X143823809Y-87487200D02*
X143680952Y-87534819D01*
X143680952Y-87534819D02*
X143585714Y-87534819D01*
X144442857Y-87534819D02*
X144442857Y-86534819D01*
X144442857Y-86534819D02*
X144823809Y-86534819D01*
X144823809Y-86534819D02*
X144919047Y-86582438D01*
X144919047Y-86582438D02*
X144966666Y-86630057D01*
X144966666Y-86630057D02*
X145014285Y-86725295D01*
X145014285Y-86725295D02*
X145014285Y-86868152D01*
X145014285Y-86868152D02*
X144966666Y-86963390D01*
X144966666Y-86963390D02*
X144919047Y-87011009D01*
X144919047Y-87011009D02*
X144823809Y-87058628D01*
X144823809Y-87058628D02*
X144442857Y-87058628D01*
X145395238Y-86630057D02*
X145442857Y-86582438D01*
X145442857Y-86582438D02*
X145538095Y-86534819D01*
X145538095Y-86534819D02*
X145776190Y-86534819D01*
X145776190Y-86534819D02*
X145871428Y-86582438D01*
X145871428Y-86582438D02*
X145919047Y-86630057D01*
X145919047Y-86630057D02*
X145966666Y-86725295D01*
X145966666Y-86725295D02*
X145966666Y-86820533D01*
X145966666Y-86820533D02*
X145919047Y-86963390D01*
X145919047Y-86963390D02*
X145347619Y-87534819D01*
X145347619Y-87534819D02*
X145966666Y-87534819D01*
X153433333Y-114659580D02*
X153385714Y-114707200D01*
X153385714Y-114707200D02*
X153242857Y-114754819D01*
X153242857Y-114754819D02*
X153147619Y-114754819D01*
X153147619Y-114754819D02*
X153004762Y-114707200D01*
X153004762Y-114707200D02*
X152909524Y-114611961D01*
X152909524Y-114611961D02*
X152861905Y-114516723D01*
X152861905Y-114516723D02*
X152814286Y-114326247D01*
X152814286Y-114326247D02*
X152814286Y-114183390D01*
X152814286Y-114183390D02*
X152861905Y-113992914D01*
X152861905Y-113992914D02*
X152909524Y-113897676D01*
X152909524Y-113897676D02*
X153004762Y-113802438D01*
X153004762Y-113802438D02*
X153147619Y-113754819D01*
X153147619Y-113754819D02*
X153242857Y-113754819D01*
X153242857Y-113754819D02*
X153385714Y-113802438D01*
X153385714Y-113802438D02*
X153433333Y-113850057D01*
X154385714Y-114754819D02*
X153814286Y-114754819D01*
X154100000Y-114754819D02*
X154100000Y-113754819D01*
X154100000Y-113754819D02*
X154004762Y-113897676D01*
X154004762Y-113897676D02*
X153909524Y-113992914D01*
X153909524Y-113992914D02*
X153814286Y-114040533D01*
X161574819Y-115238094D02*
X160574819Y-115238094D01*
X160574819Y-115238094D02*
X160574819Y-114999999D01*
X160574819Y-114999999D02*
X160622438Y-114857142D01*
X160622438Y-114857142D02*
X160717676Y-114761904D01*
X160717676Y-114761904D02*
X160812914Y-114714285D01*
X160812914Y-114714285D02*
X161003390Y-114666666D01*
X161003390Y-114666666D02*
X161146247Y-114666666D01*
X161146247Y-114666666D02*
X161336723Y-114714285D01*
X161336723Y-114714285D02*
X161431961Y-114761904D01*
X161431961Y-114761904D02*
X161527200Y-114857142D01*
X161527200Y-114857142D02*
X161574819Y-114999999D01*
X161574819Y-114999999D02*
X161574819Y-115238094D01*
X160908152Y-113809523D02*
X161574819Y-113809523D01*
X160527200Y-114047618D02*
X161241485Y-114285713D01*
X161241485Y-114285713D02*
X161241485Y-113666666D01*
X173195833Y-119309580D02*
X173148214Y-119357200D01*
X173148214Y-119357200D02*
X173005357Y-119404819D01*
X173005357Y-119404819D02*
X172910119Y-119404819D01*
X172910119Y-119404819D02*
X172767262Y-119357200D01*
X172767262Y-119357200D02*
X172672024Y-119261961D01*
X172672024Y-119261961D02*
X172624405Y-119166723D01*
X172624405Y-119166723D02*
X172576786Y-118976247D01*
X172576786Y-118976247D02*
X172576786Y-118833390D01*
X172576786Y-118833390D02*
X172624405Y-118642914D01*
X172624405Y-118642914D02*
X172672024Y-118547676D01*
X172672024Y-118547676D02*
X172767262Y-118452438D01*
X172767262Y-118452438D02*
X172910119Y-118404819D01*
X172910119Y-118404819D02*
X173005357Y-118404819D01*
X173005357Y-118404819D02*
X173148214Y-118452438D01*
X173148214Y-118452438D02*
X173195833Y-118500057D01*
X173529167Y-118404819D02*
X174148214Y-118404819D01*
X174148214Y-118404819D02*
X173814881Y-118785771D01*
X173814881Y-118785771D02*
X173957738Y-118785771D01*
X173957738Y-118785771D02*
X174052976Y-118833390D01*
X174052976Y-118833390D02*
X174100595Y-118881009D01*
X174100595Y-118881009D02*
X174148214Y-118976247D01*
X174148214Y-118976247D02*
X174148214Y-119214342D01*
X174148214Y-119214342D02*
X174100595Y-119309580D01*
X174100595Y-119309580D02*
X174052976Y-119357200D01*
X174052976Y-119357200D02*
X173957738Y-119404819D01*
X173957738Y-119404819D02*
X173672024Y-119404819D01*
X173672024Y-119404819D02*
X173576786Y-119357200D01*
X173576786Y-119357200D02*
X173529167Y-119309580D01*
X162359104Y-101944285D02*
X162359104Y-101468095D01*
X162644819Y-102039523D02*
X161644819Y-101706190D01*
X161644819Y-101706190D02*
X162644819Y-101372857D01*
X162644819Y-100515714D02*
X162644819Y-101087142D01*
X162644819Y-100801428D02*
X161644819Y-100801428D01*
X161644819Y-100801428D02*
X161787676Y-100896666D01*
X161787676Y-100896666D02*
X161882914Y-100991904D01*
X161882914Y-100991904D02*
X161930533Y-101087142D01*
X147054819Y-70761904D02*
X147054819Y-70190476D01*
X148054819Y-70476190D02*
X147054819Y-70476190D01*
X148054819Y-69857142D02*
X147054819Y-69857142D01*
X147054819Y-69857142D02*
X147054819Y-69476190D01*
X147054819Y-69476190D02*
X147102438Y-69380952D01*
X147102438Y-69380952D02*
X147150057Y-69333333D01*
X147150057Y-69333333D02*
X147245295Y-69285714D01*
X147245295Y-69285714D02*
X147388152Y-69285714D01*
X147388152Y-69285714D02*
X147483390Y-69333333D01*
X147483390Y-69333333D02*
X147531009Y-69380952D01*
X147531009Y-69380952D02*
X147578628Y-69476190D01*
X147578628Y-69476190D02*
X147578628Y-69857142D01*
X148054819Y-68333333D02*
X148054819Y-68904761D01*
X148054819Y-68619047D02*
X147054819Y-68619047D01*
X147054819Y-68619047D02*
X147197676Y-68714285D01*
X147197676Y-68714285D02*
X147292914Y-68809523D01*
X147292914Y-68809523D02*
X147340533Y-68904761D01*
X161304819Y-110468094D02*
X160304819Y-110468094D01*
X160304819Y-110468094D02*
X160304819Y-110229999D01*
X160304819Y-110229999D02*
X160352438Y-110087142D01*
X160352438Y-110087142D02*
X160447676Y-109991904D01*
X160447676Y-109991904D02*
X160542914Y-109944285D01*
X160542914Y-109944285D02*
X160733390Y-109896666D01*
X160733390Y-109896666D02*
X160876247Y-109896666D01*
X160876247Y-109896666D02*
X161066723Y-109944285D01*
X161066723Y-109944285D02*
X161161961Y-109991904D01*
X161161961Y-109991904D02*
X161257200Y-110087142D01*
X161257200Y-110087142D02*
X161304819Y-110229999D01*
X161304819Y-110229999D02*
X161304819Y-110468094D01*
X161304819Y-108944285D02*
X161304819Y-109515713D01*
X161304819Y-109229999D02*
X160304819Y-109229999D01*
X160304819Y-109229999D02*
X160447676Y-109325237D01*
X160447676Y-109325237D02*
X160542914Y-109420475D01*
X160542914Y-109420475D02*
X160590533Y-109515713D01*
X180854819Y-108861904D02*
X180854819Y-108290476D01*
X181854819Y-108576190D02*
X180854819Y-108576190D01*
X181854819Y-107957142D02*
X180854819Y-107957142D01*
X180854819Y-107957142D02*
X180854819Y-107576190D01*
X180854819Y-107576190D02*
X180902438Y-107480952D01*
X180902438Y-107480952D02*
X180950057Y-107433333D01*
X180950057Y-107433333D02*
X181045295Y-107385714D01*
X181045295Y-107385714D02*
X181188152Y-107385714D01*
X181188152Y-107385714D02*
X181283390Y-107433333D01*
X181283390Y-107433333D02*
X181331009Y-107480952D01*
X181331009Y-107480952D02*
X181378628Y-107576190D01*
X181378628Y-107576190D02*
X181378628Y-107957142D01*
X180950057Y-107004761D02*
X180902438Y-106957142D01*
X180902438Y-106957142D02*
X180854819Y-106861904D01*
X180854819Y-106861904D02*
X180854819Y-106623809D01*
X180854819Y-106623809D02*
X180902438Y-106528571D01*
X180902438Y-106528571D02*
X180950057Y-106480952D01*
X180950057Y-106480952D02*
X181045295Y-106433333D01*
X181045295Y-106433333D02*
X181140533Y-106433333D01*
X181140533Y-106433333D02*
X181283390Y-106480952D01*
X181283390Y-106480952D02*
X181854819Y-107052380D01*
X181854819Y-107052380D02*
X181854819Y-106433333D01*
X171527200Y-75333332D02*
X171574819Y-75190475D01*
X171574819Y-75190475D02*
X171574819Y-74952380D01*
X171574819Y-74952380D02*
X171527200Y-74857142D01*
X171527200Y-74857142D02*
X171479580Y-74809523D01*
X171479580Y-74809523D02*
X171384342Y-74761904D01*
X171384342Y-74761904D02*
X171289104Y-74761904D01*
X171289104Y-74761904D02*
X171193866Y-74809523D01*
X171193866Y-74809523D02*
X171146247Y-74857142D01*
X171146247Y-74857142D02*
X171098628Y-74952380D01*
X171098628Y-74952380D02*
X171051009Y-75142856D01*
X171051009Y-75142856D02*
X171003390Y-75238094D01*
X171003390Y-75238094D02*
X170955771Y-75285713D01*
X170955771Y-75285713D02*
X170860533Y-75333332D01*
X170860533Y-75333332D02*
X170765295Y-75333332D01*
X170765295Y-75333332D02*
X170670057Y-75285713D01*
X170670057Y-75285713D02*
X170622438Y-75238094D01*
X170622438Y-75238094D02*
X170574819Y-75142856D01*
X170574819Y-75142856D02*
X170574819Y-74904761D01*
X170574819Y-74904761D02*
X170622438Y-74761904D01*
X170574819Y-74428570D02*
X171574819Y-74190475D01*
X171574819Y-74190475D02*
X170860533Y-73999999D01*
X170860533Y-73999999D02*
X171574819Y-73809523D01*
X171574819Y-73809523D02*
X170574819Y-73571428D01*
X170670057Y-73238094D02*
X170622438Y-73190475D01*
X170622438Y-73190475D02*
X170574819Y-73095237D01*
X170574819Y-73095237D02*
X170574819Y-72857142D01*
X170574819Y-72857142D02*
X170622438Y-72761904D01*
X170622438Y-72761904D02*
X170670057Y-72714285D01*
X170670057Y-72714285D02*
X170765295Y-72666666D01*
X170765295Y-72666666D02*
X170860533Y-72666666D01*
X170860533Y-72666666D02*
X171003390Y-72714285D01*
X171003390Y-72714285D02*
X171574819Y-73285713D01*
X171574819Y-73285713D02*
X171574819Y-72666666D01*
X204523810Y-111764819D02*
X204523810Y-110764819D01*
X205571428Y-111669580D02*
X205523809Y-111717200D01*
X205523809Y-111717200D02*
X205380952Y-111764819D01*
X205380952Y-111764819D02*
X205285714Y-111764819D01*
X205285714Y-111764819D02*
X205142857Y-111717200D01*
X205142857Y-111717200D02*
X205047619Y-111621961D01*
X205047619Y-111621961D02*
X205000000Y-111526723D01*
X205000000Y-111526723D02*
X204952381Y-111336247D01*
X204952381Y-111336247D02*
X204952381Y-111193390D01*
X204952381Y-111193390D02*
X205000000Y-111002914D01*
X205000000Y-111002914D02*
X205047619Y-110907676D01*
X205047619Y-110907676D02*
X205142857Y-110812438D01*
X205142857Y-110812438D02*
X205285714Y-110764819D01*
X205285714Y-110764819D02*
X205380952Y-110764819D01*
X205380952Y-110764819D02*
X205523809Y-110812438D01*
X205523809Y-110812438D02*
X205571428Y-110860057D01*
X206523809Y-111764819D02*
X205952381Y-111764819D01*
X206238095Y-111764819D02*
X206238095Y-110764819D01*
X206238095Y-110764819D02*
X206142857Y-110907676D01*
X206142857Y-110907676D02*
X206047619Y-111002914D01*
X206047619Y-111002914D02*
X205952381Y-111050533D01*
X213166667Y-112027200D02*
X213309524Y-112074819D01*
X213309524Y-112074819D02*
X213547619Y-112074819D01*
X213547619Y-112074819D02*
X213642857Y-112027200D01*
X213642857Y-112027200D02*
X213690476Y-111979580D01*
X213690476Y-111979580D02*
X213738095Y-111884342D01*
X213738095Y-111884342D02*
X213738095Y-111789104D01*
X213738095Y-111789104D02*
X213690476Y-111693866D01*
X213690476Y-111693866D02*
X213642857Y-111646247D01*
X213642857Y-111646247D02*
X213547619Y-111598628D01*
X213547619Y-111598628D02*
X213357143Y-111551009D01*
X213357143Y-111551009D02*
X213261905Y-111503390D01*
X213261905Y-111503390D02*
X213214286Y-111455771D01*
X213214286Y-111455771D02*
X213166667Y-111360533D01*
X213166667Y-111360533D02*
X213166667Y-111265295D01*
X213166667Y-111265295D02*
X213214286Y-111170057D01*
X213214286Y-111170057D02*
X213261905Y-111122438D01*
X213261905Y-111122438D02*
X213357143Y-111074819D01*
X213357143Y-111074819D02*
X213595238Y-111074819D01*
X213595238Y-111074819D02*
X213738095Y-111122438D01*
X214071429Y-111074819D02*
X214309524Y-112074819D01*
X214309524Y-112074819D02*
X214500000Y-111360533D01*
X214500000Y-111360533D02*
X214690476Y-112074819D01*
X214690476Y-112074819D02*
X214928572Y-111074819D01*
X215833333Y-112074819D02*
X215261905Y-112074819D01*
X215547619Y-112074819D02*
X215547619Y-111074819D01*
X215547619Y-111074819D02*
X215452381Y-111217676D01*
X215452381Y-111217676D02*
X215357143Y-111312914D01*
X215357143Y-111312914D02*
X215261905Y-111360533D01*
X186214583Y-119690830D02*
X186166964Y-119738450D01*
X186166964Y-119738450D02*
X186024107Y-119786069D01*
X186024107Y-119786069D02*
X185928869Y-119786069D01*
X185928869Y-119786069D02*
X185786012Y-119738450D01*
X185786012Y-119738450D02*
X185690774Y-119643211D01*
X185690774Y-119643211D02*
X185643155Y-119547973D01*
X185643155Y-119547973D02*
X185595536Y-119357497D01*
X185595536Y-119357497D02*
X185595536Y-119214640D01*
X185595536Y-119214640D02*
X185643155Y-119024164D01*
X185643155Y-119024164D02*
X185690774Y-118928926D01*
X185690774Y-118928926D02*
X185786012Y-118833688D01*
X185786012Y-118833688D02*
X185928869Y-118786069D01*
X185928869Y-118786069D02*
X186024107Y-118786069D01*
X186024107Y-118786069D02*
X186166964Y-118833688D01*
X186166964Y-118833688D02*
X186214583Y-118881307D01*
X186595536Y-118881307D02*
X186643155Y-118833688D01*
X186643155Y-118833688D02*
X186738393Y-118786069D01*
X186738393Y-118786069D02*
X186976488Y-118786069D01*
X186976488Y-118786069D02*
X187071726Y-118833688D01*
X187071726Y-118833688D02*
X187119345Y-118881307D01*
X187119345Y-118881307D02*
X187166964Y-118976545D01*
X187166964Y-118976545D02*
X187166964Y-119071783D01*
X187166964Y-119071783D02*
X187119345Y-119214640D01*
X187119345Y-119214640D02*
X186547917Y-119786069D01*
X186547917Y-119786069D02*
X187166964Y-119786069D01*
X156666666Y-69074819D02*
X156666666Y-69789104D01*
X156666666Y-69789104D02*
X156619047Y-69931961D01*
X156619047Y-69931961D02*
X156523809Y-70027200D01*
X156523809Y-70027200D02*
X156380952Y-70074819D01*
X156380952Y-70074819D02*
X156285714Y-70074819D01*
X157142857Y-70074819D02*
X157142857Y-69074819D01*
X157142857Y-69074819D02*
X157523809Y-69074819D01*
X157523809Y-69074819D02*
X157619047Y-69122438D01*
X157619047Y-69122438D02*
X157666666Y-69170057D01*
X157666666Y-69170057D02*
X157714285Y-69265295D01*
X157714285Y-69265295D02*
X157714285Y-69408152D01*
X157714285Y-69408152D02*
X157666666Y-69503390D01*
X157666666Y-69503390D02*
X157619047Y-69551009D01*
X157619047Y-69551009D02*
X157523809Y-69598628D01*
X157523809Y-69598628D02*
X157142857Y-69598628D01*
X158047619Y-69074819D02*
X158666666Y-69074819D01*
X158666666Y-69074819D02*
X158333333Y-69455771D01*
X158333333Y-69455771D02*
X158476190Y-69455771D01*
X158476190Y-69455771D02*
X158571428Y-69503390D01*
X158571428Y-69503390D02*
X158619047Y-69551009D01*
X158619047Y-69551009D02*
X158666666Y-69646247D01*
X158666666Y-69646247D02*
X158666666Y-69884342D01*
X158666666Y-69884342D02*
X158619047Y-69979580D01*
X158619047Y-69979580D02*
X158571428Y-70027200D01*
X158571428Y-70027200D02*
X158476190Y-70074819D01*
X158476190Y-70074819D02*
X158190476Y-70074819D01*
X158190476Y-70074819D02*
X158095238Y-70027200D01*
X158095238Y-70027200D02*
X158047619Y-69979580D01*
D12*
%TO.C,U2*%
X220320000Y-101220000D02*
X220320000Y-83330000D01*
X223080000Y-83330000D02*
X220320000Y-83330000D01*
X223080000Y-101220000D02*
X220320000Y-101220000D01*
X223080000Y-101220000D02*
X223080000Y-83330000D01*
X223080000Y-102490000D02*
X223080000Y-103870000D01*
X223080000Y-103870000D02*
X221700000Y-103870000D01*
%TO.C,JP2*%
X143420000Y-83430000D02*
X143420000Y-70620000D01*
X146180000Y-70620000D02*
X143420000Y-70620000D01*
X146180000Y-83430000D02*
X143420000Y-83430000D01*
X146180000Y-83430000D02*
X146180000Y-70620000D01*
X146180000Y-84700000D02*
X146180000Y-86080000D01*
X146180000Y-86080000D02*
X144800000Y-86080000D01*
%TO.C,C1*%
X152988748Y-115490000D02*
X154411252Y-115490000D01*
X152988748Y-117310000D02*
X154411252Y-117310000D01*
%TO.C,D4*%
X162120000Y-115880000D02*
X162120000Y-114500000D01*
X163500000Y-115880000D02*
X162120000Y-115880000D01*
X164770000Y-113120000D02*
X169960000Y-113120000D01*
X164770000Y-115880000D02*
X164770000Y-113120000D01*
X164770000Y-115880000D02*
X169960000Y-115880000D01*
X169960000Y-115880000D02*
X169960000Y-113120000D01*
%TO.C,C3*%
X172651248Y-119890000D02*
X174073752Y-119890000D01*
X172651248Y-121710000D02*
X174073752Y-121710000D01*
%TO.C,A1*%
X159540000Y-83450000D02*
X159540000Y-101230000D01*
X162190000Y-80800000D02*
X207910000Y-80800000D01*
X162190000Y-103880000D02*
X207910000Y-103880000D01*
X167000000Y-104200000D02*
X165000000Y-104200000D01*
X210560000Y-83450000D02*
X210560000Y-101230000D01*
X159540000Y-83450000D02*
G75*
G02*
X162190000Y-80800000I2650000J0D01*
G01*
X162190000Y-103880000D02*
G75*
G02*
X159540000Y-101230000I0J2650000D01*
G01*
X207910000Y-80800000D02*
G75*
G02*
X210560000Y-83450000I0J-2650000D01*
G01*
X210560000Y-101230000D02*
G75*
G02*
X207910000Y-103880000I-2650000J0D01*
G01*
%TO.C,TP1*%
X148900000Y-68600000D02*
X150300000Y-68600000D01*
X148900000Y-70000000D02*
X148900000Y-68600000D01*
X150300000Y-68600000D02*
X150300000Y-70000000D01*
X150300000Y-70000000D02*
X148900000Y-70000000D01*
%TO.C,D1*%
X161850000Y-111110000D02*
X161850000Y-109730000D01*
X163230000Y-111110000D02*
X161850000Y-111110000D01*
X164500000Y-108350000D02*
X169690000Y-108350000D01*
X164500000Y-111110000D02*
X164500000Y-108350000D01*
X164500000Y-111110000D02*
X169690000Y-111110000D01*
X169690000Y-111110000D02*
X169690000Y-108350000D01*
%TO.C,TP2*%
X178900000Y-106900000D02*
X180300000Y-106900000D01*
X178900000Y-108300000D02*
X178900000Y-106900000D01*
X180300000Y-106900000D02*
X180300000Y-108300000D01*
X180300000Y-108300000D02*
X178900000Y-108300000D01*
%TO.C,SW2*%
X172120000Y-75380000D02*
X172120000Y-74000000D01*
X173500000Y-75380000D02*
X172120000Y-75380000D01*
X174770000Y-72620000D02*
X179960000Y-72620000D01*
X174770000Y-75380000D02*
X174770000Y-72620000D01*
X174770000Y-75380000D02*
X179960000Y-75380000D01*
X179960000Y-75380000D02*
X179960000Y-72620000D01*
%TO.C,IC1*%
X204120000Y-112310000D02*
X205500000Y-112310000D01*
X204120000Y-113690000D02*
X204120000Y-112310000D01*
X204120000Y-114960000D02*
X204120000Y-122690000D01*
X204120000Y-114960000D02*
X206880000Y-114960000D01*
X204120000Y-122690000D02*
X206880000Y-122690000D01*
X206880000Y-114960000D02*
X206880000Y-122690000D01*
%TO.C,SW1*%
X213120000Y-112620000D02*
X214500000Y-112620000D01*
X213120000Y-114000000D02*
X213120000Y-112620000D01*
X213120000Y-115270000D02*
X213120000Y-120460000D01*
X213120000Y-115270000D02*
X215880000Y-115270000D01*
X213120000Y-120460000D02*
X215880000Y-120460000D01*
X215880000Y-115270000D02*
X215880000Y-120460000D01*
%TO.C,C2*%
X185669998Y-120271250D02*
X187092502Y-120271250D01*
X185669998Y-122091250D02*
X187092502Y-122091250D01*
%TO.C,JP3*%
X156120000Y-70620000D02*
X157500000Y-70620000D01*
X156120000Y-72000000D02*
X156120000Y-70620000D01*
X156120000Y-73270000D02*
X156120000Y-86080000D01*
X156120000Y-73270000D02*
X158880000Y-73270000D01*
X156120000Y-86080000D02*
X158880000Y-86080000D01*
X158880000Y-73270000D02*
X158880000Y-86080000D01*
%TD*%
M02*
