%TF.GenerationSoftware,KiCad,Pcbnew,9.0.6*%
%TF.CreationDate,2025-11-22T22:40:17-08:00*%
%TF.ProjectId,A_Team_ECE411,415f5465-616d-45f4-9543-453431312e6b,4*%
%TF.SameCoordinates,Original*%
%TF.FileFunction,Copper,L1,Top*%
%TF.FilePolarity,Positive*%
%FSLAX46Y46*%
G04 Gerber Fmt 4.6, Leading zero omitted, Abs format (unit mm)*
G04 Created by KiCad (PCBNEW 9.0.6) date 2025-11-22 22:40:17*
%MOMM*%
%LPD*%
G01*
G04 APERTURE LIST*
G04 Aperture macros list*
%AMRoundRect*
0 Rectangle with rounded corners*
0 $1 Rounding radius*
0 $2 $3 $4 $5 $6 $7 $8 $9 X,Y pos of 4 corners*
0 Add a 4 corners polygon primitive as box body*
4,1,4,$2,$3,$4,$5,$6,$7,$8,$9,$2,$3,0*
0 Add four circle primitives for the rounded corners*
1,1,$1+$1,$2,$3*
1,1,$1+$1,$4,$5*
1,1,$1+$1,$6,$7*
1,1,$1+$1,$8,$9*
0 Add four rect primitives between the rounded corners*
20,1,$1+$1,$2,$3,$4,$5,0*
20,1,$1+$1,$4,$5,$6,$7,0*
20,1,$1+$1,$6,$7,$8,$9,0*
20,1,$1+$1,$8,$9,$2,$3,0*%
G04 Aperture macros list end*
%TA.AperFunction,ComponentPad*%
%ADD10R,1.700000X1.700000*%
%TD*%
%TA.AperFunction,ComponentPad*%
%ADD11C,1.700000*%
%TD*%
%TA.AperFunction,SMDPad,CuDef*%
%ADD12RoundRect,0.250000X-0.412500X-0.650000X0.412500X-0.650000X0.412500X0.650000X-0.412500X0.650000X0*%
%TD*%
%TA.AperFunction,ComponentPad*%
%ADD13RoundRect,0.250000X0.550000X-1.050000X0.550000X1.050000X-0.550000X1.050000X-0.550000X-1.050000X0*%
%TD*%
%TA.AperFunction,ComponentPad*%
%ADD14O,1.600000X2.600000*%
%TD*%
%TA.AperFunction,ComponentPad*%
%ADD15R,1.000000X1.000000*%
%TD*%
%TA.AperFunction,ViaPad*%
%ADD16C,0.600000*%
%TD*%
%TA.AperFunction,Conductor*%
%ADD17C,0.300000*%
%TD*%
%TA.AperFunction,Conductor*%
%ADD18C,0.200000*%
%TD*%
%TA.AperFunction,Conductor*%
%ADD19C,1.000000*%
%TD*%
%TA.AperFunction,Conductor*%
%ADD20C,0.500000*%
%TD*%
G04 APERTURE END LIST*
D10*
%TO.P,U2,1,VCC*%
%TO.N,+3.3V*%
X221700000Y-102490000D03*
D11*
%TO.P,U2,2,RST*%
%TO.N,/REST*%
X221700000Y-99950000D03*
%TO.P,U2,3,GND*%
%TO.N,GND*%
X221700000Y-97410000D03*
%TO.P,U2,4,IRQ*%
%TO.N,unconnected-(U2-IRQ-Pad4)*%
X221700000Y-94870000D03*
%TO.P,U2,5,MISO/SCL/TX*%
%TO.N,/MISO*%
X221700000Y-92330000D03*
%TO.P,U2,6,MOSI*%
%TO.N,/MOSI*%
X221700000Y-89790000D03*
%TO.P,U2,7,SCK*%
%TO.N,/SCK*%
X221700000Y-87250000D03*
%TO.P,U2,8,SS/SDA/RX*%
%TO.N,/IO10*%
X221700000Y-84710000D03*
%TD*%
D10*
%TO.P,JP2,1,1*%
%TO.N,/CS*%
X144800000Y-84700000D03*
D11*
%TO.P,JP2,2,2*%
%TO.N,/MISO*%
X144800000Y-82160000D03*
%TO.P,JP2,3,3*%
%TO.N,/ADC1*%
X144800000Y-79620000D03*
%TO.P,JP2,4,4*%
%TO.N,/ADC2*%
X144800000Y-77080000D03*
%TO.P,JP2,5,5*%
%TO.N,/ADC3*%
X144800000Y-74540000D03*
%TO.P,JP2,6,6*%
%TO.N,/INT2*%
X144800000Y-72000000D03*
%TD*%
D12*
%TO.P,C1,1*%
%TO.N,+3.3V*%
X152137500Y-116400000D03*
%TO.P,C1,2*%
%TO.N,GND*%
X155262500Y-116400000D03*
%TD*%
D10*
%TO.P,D4,1,VDD*%
%TO.N,+5V*%
X163500000Y-114500000D03*
D11*
%TO.P,D4,2,DIN*%
%TO.N,Net-(A1-A2)*%
X166040000Y-114500000D03*
%TO.P,D4,3,GND*%
%TO.N,GND*%
X168580000Y-114500000D03*
%TD*%
D12*
%TO.P,C3,1*%
%TO.N,+5V*%
X171800000Y-120800000D03*
%TO.P,C3,2*%
%TO.N,GND*%
X174925000Y-120800000D03*
%TD*%
D13*
%TO.P,A1,1,~{RESET}*%
%TO.N,/REST*%
X166000000Y-102200000D03*
D14*
%TO.P,A1,2,3V3*%
%TO.N,+3.3V*%
X168540000Y-102200000D03*
%TO.P,A1,3,3V3*%
%TO.N,Net-(A1-3V3-Pad3)*%
X171080000Y-102200000D03*
%TO.P,A1,4,GND*%
%TO.N,GND*%
X173620000Y-102200000D03*
%TO.P,A1,5,A0*%
%TO.N,/A0*%
X176160000Y-102200000D03*
%TO.P,A1,6,A1*%
%TO.N,/IO11*%
X178700000Y-102200000D03*
%TO.P,A1,7,A2*%
%TO.N,Net-(A1-A2)*%
X181240000Y-102200000D03*
%TO.P,A1,8,A3*%
%TO.N,unconnected-(A1-A3-Pad8)*%
X183780000Y-102200000D03*
%TO.P,A1,9,A4*%
%TO.N,unconnected-(A1-A4-Pad9)*%
X186320000Y-102200000D03*
%TO.P,A1,10,A5*%
%TO.N,unconnected-(A1-A5-Pad10)*%
X188860000Y-102200000D03*
%TO.P,A1,11,SCK*%
%TO.N,/SCK*%
X191400000Y-102200000D03*
%TO.P,A1,12,MOSI*%
%TO.N,/MOSI*%
X193940000Y-102200000D03*
%TO.P,A1,13,MISO*%
%TO.N,/MISO*%
X196480000Y-102200000D03*
%TO.P,A1,14,RX*%
%TO.N,unconnected-(A1-RX-Pad14)*%
X199020000Y-102200000D03*
%TO.P,A1,15,TX*%
%TO.N,unconnected-(A1-TX-Pad15)*%
X201560000Y-102200000D03*
%TO.P,A1,16,DB*%
%TO.N,unconnected-(A1-DB-Pad16)*%
X204100000Y-102200000D03*
%TO.P,A1,17,SDA/IO3*%
%TO.N,unconnected-(A1-SDA{slash}IO3-Pad17)*%
X204100000Y-82480000D03*
%TO.P,A1,18,SCL/IO4*%
%TO.N,unconnected-(A1-SCL{slash}IO4-Pad18)*%
X201560000Y-82480000D03*
%TO.P,A1,19,IO5*%
%TO.N,unconnected-(A1-IO5-Pad19)*%
X199020000Y-82480000D03*
%TO.P,A1,20,IO6*%
%TO.N,/IO6*%
X196480000Y-82480000D03*
%TO.P,A1,21,IO9*%
%TO.N,/CS*%
X193940000Y-82480000D03*
%TO.P,A1,22,IO10*%
%TO.N,/IO10*%
X191400000Y-82480000D03*
%TO.P,A1,23,IO11*%
%TO.N,unconnected-(A1-IO11-Pad23)*%
X188860000Y-82480000D03*
%TO.P,A1,24,IO12*%
%TO.N,unconnected-(A1-IO12-Pad24)*%
X186320000Y-82480000D03*
%TO.P,A1,25,IO13*%
%TO.N,unconnected-(A1-IO13-Pad25)*%
X183780000Y-82480000D03*
%TO.P,A1,26,VBUS*%
%TO.N,unconnected-(A1-VBUS-Pad26)*%
X181240000Y-82480000D03*
%TO.P,A1,27,EN*%
%TO.N,Net-(A1-EN)*%
X178700000Y-82480000D03*
%TO.P,A1,28,VBAT*%
%TO.N,unconnected-(A1-VBAT-Pad28)*%
X176160000Y-82480000D03*
%TD*%
D15*
%TO.P,TP1,1,1*%
%TO.N,/INT2*%
X149600000Y-69300000D03*
%TD*%
D10*
%TO.P,D1,1,VDD*%
%TO.N,+5V*%
X163230000Y-109730000D03*
D11*
%TO.P,D1,2,DIN*%
%TO.N,/IO11*%
X165770000Y-109730000D03*
%TO.P,D1,3,GND*%
%TO.N,GND*%
X168310000Y-109730000D03*
%TD*%
D15*
%TO.P,TP2,1,1*%
%TO.N,/A0*%
X179600000Y-107600000D03*
%TD*%
D10*
%TO.P,SW2,1,A*%
%TO.N,Net-(A1-EN)*%
X173500000Y-74000000D03*
D11*
%TO.P,SW2,2,B*%
%TO.N,GND*%
X176040000Y-74000000D03*
%TO.P,SW2,3,C*%
%TO.N,unconnected-(SW2-C-Pad3)*%
X178580000Y-74000000D03*
%TD*%
D10*
%TO.P,IC1,1,VIN*%
%TO.N,+3.3V*%
X205500000Y-113690000D03*
D11*
%TO.P,IC1,2,GND*%
%TO.N,GND*%
X205500000Y-116230000D03*
%TO.P,IC1,3,VOUT*%
%TO.N,+5V*%
X205500000Y-118770000D03*
%TO.P,IC1,4,EN*%
%TO.N,/IO6*%
X205500000Y-121310000D03*
%TD*%
%TO.P,SW1,2,B*%
%TO.N,/IO6*%
X214500000Y-116540000D03*
%TO.P,SW1,3,3V*%
%TO.N,+3.3V*%
X214500000Y-119080000D03*
D10*
%TO.P,SW1,1,GND*%
%TO.N,GND*%
X214500000Y-114000000D03*
%TD*%
D12*
%TO.P,C2,1*%
%TO.N,+5V*%
X184818750Y-121181250D03*
%TO.P,C2,2*%
%TO.N,GND*%
X187943750Y-121181250D03*
%TD*%
D10*
%TO.P,JP3,1,1*%
%TO.N,Net-(A1-3V3-Pad3)*%
X157500000Y-72000000D03*
D11*
%TO.P,JP3,2,2*%
%TO.N,unconnected-(JP3-Pad2)*%
X157500000Y-74540000D03*
%TO.P,JP3,3,3*%
%TO.N,GND*%
X157500000Y-77080000D03*
%TO.P,JP3,4,4*%
%TO.N,/SCK*%
X157500000Y-79620000D03*
%TO.P,JP3,5,5*%
%TO.N,/MOSI*%
X157500000Y-82160000D03*
%TO.P,JP3,6,6*%
%TO.N,/A0*%
X157500000Y-84700000D03*
%TD*%
D16*
%TO.N,GND*%
X217500000Y-84800000D03*
X171500000Y-97500000D03*
X208500000Y-116500000D03*
X179300000Y-97300000D03*
X175700000Y-98300000D03*
X170730000Y-109730000D03*
X173600000Y-104800000D03*
X182400000Y-99100000D03*
X187600000Y-71800000D03*
X185000000Y-109000000D03*
X219500000Y-73500000D03*
X156500000Y-105000000D03*
X168000000Y-107000000D03*
X214500000Y-110100000D03*
X150500000Y-105000000D03*
X205500000Y-105500000D03*
X171500000Y-115500000D03*
%TD*%
D17*
%TO.N,/MOSI*%
X193940000Y-102500000D02*
X191440000Y-105000000D01*
X170000000Y-83500000D02*
X158840000Y-83500000D01*
X187600000Y-103300000D02*
X187600000Y-101100000D01*
X191440000Y-105000000D02*
X189300000Y-105000000D01*
X189300000Y-105000000D02*
X187600000Y-103300000D01*
X187600000Y-101100000D02*
X170000000Y-83500000D01*
X158840000Y-83500000D02*
X157500000Y-82160000D01*
%TO.N,/A0*%
X179600000Y-107600000D02*
X177800000Y-107600000D01*
X177800000Y-107600000D02*
X176160000Y-105960000D01*
X176160000Y-105960000D02*
X176160000Y-102500000D01*
%TO.N,/MISO*%
X169800000Y-101064951D02*
X169800000Y-103700000D01*
X188780000Y-110200000D02*
X196480000Y-102500000D01*
X169800000Y-103700000D02*
X176300000Y-110200000D01*
X144800000Y-82160000D02*
X148404951Y-85764951D01*
X148404951Y-85764951D02*
X154500000Y-85764951D01*
X154500000Y-85764951D02*
X169800000Y-101064951D01*
X176300000Y-110200000D02*
X188780000Y-110200000D01*
D18*
%TO.N,/IO11*%
X179000000Y-102800000D02*
X178700000Y-102500000D01*
D17*
%TO.N,/MOSI*%
X206690000Y-89750000D02*
X221740000Y-89750000D01*
X193940000Y-102500000D02*
X206690000Y-89750000D01*
D19*
%TO.N,+3.3V*%
X221740000Y-111840000D02*
X214500000Y-119080000D01*
X167500000Y-105600000D02*
X160700000Y-105600000D01*
X205500000Y-113690000D02*
X216740000Y-102450000D01*
X221740000Y-102450000D02*
X221740000Y-111840000D01*
X168540000Y-104560000D02*
X167500000Y-105600000D01*
X216740000Y-102450000D02*
X221740000Y-102450000D01*
X168540000Y-102500000D02*
X168540000Y-104560000D01*
X160700000Y-105600000D02*
X152137500Y-114162500D01*
X152137500Y-114162500D02*
X152137500Y-116400000D01*
D17*
%TO.N,/A0*%
X158950000Y-86150000D02*
X166150000Y-86150000D01*
X176160000Y-102040000D02*
X176160000Y-102500000D01*
X177800000Y-97800000D02*
X177800000Y-100400000D01*
X157500000Y-84700000D02*
X158950000Y-86150000D01*
X166150000Y-86150000D02*
X177800000Y-97800000D01*
X177800000Y-100400000D02*
X176160000Y-102040000D01*
%TO.N,/SCK*%
X171100000Y-81600000D02*
X159480000Y-81600000D01*
X159480000Y-81600000D02*
X157500000Y-79620000D01*
X191400000Y-102500000D02*
X206690000Y-87210000D01*
X191400000Y-102500000D02*
X191400000Y-101900000D01*
X206690000Y-87210000D02*
X221740000Y-87210000D01*
X191400000Y-101900000D02*
X171100000Y-81600000D01*
%TO.N,/MISO*%
X196480000Y-102500000D02*
X206690000Y-92290000D01*
X206690000Y-92290000D02*
X221740000Y-92290000D01*
D19*
%TO.N,+5V*%
X174400000Y-123400000D02*
X171800000Y-120800000D01*
X171800000Y-120800000D02*
X169800000Y-120800000D01*
X182600000Y-123400000D02*
X174400000Y-123400000D01*
X163500000Y-114500000D02*
X163500000Y-110000000D01*
X184818750Y-121181250D02*
X182600000Y-123400000D01*
X205500000Y-118770000D02*
X187230000Y-118770000D01*
X187230000Y-118770000D02*
X184818750Y-121181250D01*
X163500000Y-110000000D02*
X163230000Y-109730000D01*
X169800000Y-120800000D02*
X163500000Y-114500000D01*
D20*
%TO.N,/IO10*%
X193580000Y-80000000D02*
X217070000Y-80000000D01*
X191400000Y-82180000D02*
X193580000Y-80000000D01*
X217070000Y-80000000D02*
X221740000Y-84670000D01*
%TO.N,/INT2*%
X147500000Y-69300000D02*
X149600000Y-69300000D01*
X144800000Y-72000000D02*
X147500000Y-69300000D01*
%TD*%
%TA.AperFunction,Conductor*%
%TO.N,GND*%
G36*
X169746231Y-84170185D02*
G01*
X169766873Y-84186819D01*
X186105875Y-100525821D01*
X186139360Y-100587144D01*
X186134376Y-100656836D01*
X186092504Y-100712769D01*
X186042391Y-100735118D01*
X186028173Y-100737946D01*
X186028160Y-100737950D01*
X185846092Y-100813364D01*
X185846079Y-100813371D01*
X185682218Y-100922860D01*
X185682214Y-100922863D01*
X185542863Y-101062214D01*
X185542860Y-101062218D01*
X185433371Y-101226079D01*
X185433364Y-101226092D01*
X185357950Y-101408160D01*
X185357947Y-101408170D01*
X185319500Y-101601456D01*
X185319500Y-101601459D01*
X185319500Y-102798541D01*
X185319500Y-102798543D01*
X185319499Y-102798543D01*
X185357947Y-102991829D01*
X185357950Y-102991839D01*
X185433364Y-103173907D01*
X185433371Y-103173920D01*
X185542860Y-103337781D01*
X185542863Y-103337785D01*
X185682214Y-103477136D01*
X185682218Y-103477139D01*
X185846079Y-103586628D01*
X185846092Y-103586635D01*
X186005814Y-103652793D01*
X186028165Y-103662051D01*
X186028169Y-103662051D01*
X186028170Y-103662052D01*
X186221456Y-103700500D01*
X186221459Y-103700500D01*
X186418543Y-103700500D01*
X186570360Y-103670301D01*
X186611835Y-103662051D01*
X186793914Y-103586632D01*
X186841154Y-103555066D01*
X186907831Y-103534188D01*
X186975211Y-103552672D01*
X187020348Y-103602920D01*
X187020662Y-103602753D01*
X187021343Y-103604028D01*
X187021902Y-103604650D01*
X187023040Y-103607202D01*
X187023531Y-103608121D01*
X187023534Y-103608126D01*
X187023535Y-103608127D01*
X187089438Y-103706760D01*
X187094726Y-103714673D01*
X188885326Y-105505273D01*
X188885329Y-105505275D01*
X188885331Y-105505277D01*
X188991873Y-105576465D01*
X189110256Y-105625501D01*
X189110260Y-105625501D01*
X189110261Y-105625502D01*
X189235928Y-105650500D01*
X189235931Y-105650500D01*
X191504071Y-105650500D01*
X191588615Y-105633682D01*
X191629744Y-105625501D01*
X191748127Y-105576465D01*
X191854669Y-105505277D01*
X193642778Y-103717166D01*
X193704099Y-103683683D01*
X193754649Y-103683232D01*
X193841457Y-103700500D01*
X193841459Y-103700500D01*
X194038543Y-103700500D01*
X194044606Y-103699903D01*
X194044725Y-103701113D01*
X194107918Y-103706760D01*
X194163102Y-103749614D01*
X194186356Y-103815501D01*
X194170298Y-103883500D01*
X194150216Y-103909837D01*
X188546873Y-109513181D01*
X188485550Y-109546666D01*
X188459192Y-109549500D01*
X176620807Y-109549500D01*
X176553768Y-109529815D01*
X176533126Y-109513181D01*
X170932127Y-103912181D01*
X170898642Y-103850858D01*
X170903626Y-103781166D01*
X170945498Y-103725233D01*
X171010962Y-103700816D01*
X171019808Y-103700500D01*
X171178543Y-103700500D01*
X171330360Y-103670301D01*
X171371835Y-103662051D01*
X171553914Y-103586632D01*
X171717782Y-103477139D01*
X171857139Y-103337782D01*
X171966632Y-103173914D01*
X172042051Y-102991835D01*
X172078034Y-102810937D01*
X172110419Y-102749027D01*
X172171134Y-102714453D01*
X172240904Y-102718192D01*
X172297576Y-102759059D01*
X172322124Y-102815731D01*
X172352009Y-103004417D01*
X172415244Y-103199031D01*
X172508140Y-103381349D01*
X172628417Y-103546894D01*
X172628417Y-103546895D01*
X172773104Y-103691582D01*
X172938650Y-103811859D01*
X173120968Y-103904754D01*
X173315578Y-103967988D01*
X173370000Y-103976607D01*
X173370000Y-102933012D01*
X173427007Y-102965925D01*
X173554174Y-103000000D01*
X173685826Y-103000000D01*
X173812993Y-102965925D01*
X173870000Y-102933012D01*
X173870000Y-103976606D01*
X173924421Y-103967988D01*
X174119031Y-103904754D01*
X174301349Y-103811859D01*
X174466894Y-103691582D01*
X174466895Y-103691582D01*
X174611582Y-103546895D01*
X174611582Y-103546894D01*
X174731859Y-103381349D01*
X174824755Y-103199031D01*
X174887990Y-103004417D01*
X174917875Y-102815731D01*
X174947804Y-102752596D01*
X175007116Y-102715665D01*
X175076978Y-102716663D01*
X175135211Y-102755273D01*
X175161965Y-102810937D01*
X175197947Y-102991829D01*
X175197950Y-102991839D01*
X175273364Y-103173907D01*
X175273371Y-103173920D01*
X175382859Y-103337780D01*
X175382860Y-103337781D01*
X175382861Y-103337782D01*
X175473182Y-103428103D01*
X175506666Y-103489424D01*
X175509500Y-103515783D01*
X175509500Y-106024069D01*
X175509500Y-106024071D01*
X175509499Y-106024071D01*
X175534497Y-106149738D01*
X175534499Y-106149744D01*
X175583534Y-106268125D01*
X175654726Y-106374673D01*
X177385327Y-108105274D01*
X177385330Y-108105276D01*
X177449080Y-108147872D01*
X177491873Y-108176465D01*
X177610256Y-108225501D01*
X177610260Y-108225501D01*
X177610261Y-108225502D01*
X177735928Y-108250500D01*
X177735931Y-108250500D01*
X178535859Y-108250500D01*
X178602898Y-108270185D01*
X178648653Y-108322989D01*
X178652030Y-108331140D01*
X178656204Y-108342331D01*
X178656205Y-108342332D01*
X178656206Y-108342335D01*
X178742452Y-108457544D01*
X178742455Y-108457547D01*
X178857664Y-108543793D01*
X178857671Y-108543797D01*
X178992517Y-108594091D01*
X178992516Y-108594091D01*
X178999444Y-108594835D01*
X179052127Y-108600500D01*
X180147872Y-108600499D01*
X180207483Y-108594091D01*
X180342331Y-108543796D01*
X180457546Y-108457546D01*
X180543796Y-108342331D01*
X180594091Y-108207483D01*
X180600500Y-108147873D01*
X180600499Y-107052128D01*
X180594091Y-106992517D01*
X180543796Y-106857669D01*
X180543795Y-106857668D01*
X180543793Y-106857664D01*
X180457547Y-106742455D01*
X180457544Y-106742452D01*
X180342335Y-106656206D01*
X180342328Y-106656202D01*
X180207482Y-106605908D01*
X180207483Y-106605908D01*
X180147883Y-106599501D01*
X180147881Y-106599500D01*
X180147873Y-106599500D01*
X180147864Y-106599500D01*
X179052129Y-106599500D01*
X179052123Y-106599501D01*
X178992516Y-106605908D01*
X178857671Y-106656202D01*
X178857664Y-106656206D01*
X178742455Y-106742452D01*
X178742452Y-106742455D01*
X178656206Y-106857664D01*
X178656204Y-106857668D01*
X178656204Y-106857669D01*
X178652039Y-106868834D01*
X178610171Y-106924766D01*
X178544707Y-106949184D01*
X178535859Y-106949500D01*
X178120808Y-106949500D01*
X178053769Y-106929815D01*
X178033127Y-106913181D01*
X176846819Y-105726873D01*
X176813334Y-105665550D01*
X176810500Y-105639192D01*
X176810500Y-103515783D01*
X176830185Y-103448744D01*
X176846814Y-103428106D01*
X176937139Y-103337782D01*
X177046632Y-103173914D01*
X177122051Y-102991835D01*
X177158034Y-102810938D01*
X177160500Y-102798543D01*
X177160500Y-102010807D01*
X177180185Y-101943768D01*
X177196815Y-101923130D01*
X177487819Y-101632125D01*
X177549142Y-101598641D01*
X177618834Y-101603625D01*
X177674767Y-101645497D01*
X177699184Y-101710961D01*
X177699500Y-101719807D01*
X177699500Y-102798541D01*
X177699500Y-102798543D01*
X177699499Y-102798543D01*
X177737947Y-102991829D01*
X177737950Y-102991839D01*
X177813364Y-103173907D01*
X177813371Y-103173920D01*
X177922860Y-103337781D01*
X177922863Y-103337785D01*
X178062214Y-103477136D01*
X178062218Y-103477139D01*
X178226079Y-103586628D01*
X178226092Y-103586635D01*
X178385814Y-103652793D01*
X178408165Y-103662051D01*
X178408169Y-103662051D01*
X178408170Y-103662052D01*
X178601456Y-103700500D01*
X178601459Y-103700500D01*
X178798543Y-103700500D01*
X178950360Y-103670301D01*
X178991835Y-103662051D01*
X179173914Y-103586632D01*
X179337782Y-103477139D01*
X179477139Y-103337782D01*
X179586632Y-103173914D01*
X179662051Y-102991835D01*
X179698034Y-102810938D01*
X179700500Y-102798543D01*
X180239499Y-102798543D01*
X180277947Y-102991829D01*
X180277950Y-102991839D01*
X180353364Y-103173907D01*
X180353371Y-103173920D01*
X180462860Y-103337781D01*
X180462863Y-103337785D01*
X180602214Y-103477136D01*
X180602218Y-103477139D01*
X180766079Y-103586628D01*
X180766092Y-103586635D01*
X180925814Y-103652793D01*
X180948165Y-103662051D01*
X180948169Y-103662051D01*
X180948170Y-103662052D01*
X181141456Y-103700500D01*
X181141459Y-103700500D01*
X181338543Y-103700500D01*
X181490360Y-103670301D01*
X181531835Y-103662051D01*
X181713914Y-103586632D01*
X181877782Y-103477139D01*
X182017139Y-103337782D01*
X182126632Y-103173914D01*
X182202051Y-102991835D01*
X182238034Y-102810938D01*
X182240500Y-102798543D01*
X182779499Y-102798543D01*
X182817947Y-102991829D01*
X182817950Y-102991839D01*
X182893364Y-103173907D01*
X182893371Y-103173920D01*
X183002860Y-103337781D01*
X183002863Y-103337785D01*
X183142214Y-103477136D01*
X183142218Y-103477139D01*
X183306079Y-103586628D01*
X183306092Y-103586635D01*
X183465814Y-103652793D01*
X183488165Y-103662051D01*
X183488169Y-103662051D01*
X183488170Y-103662052D01*
X183681456Y-103700500D01*
X183681459Y-103700500D01*
X183878543Y-103700500D01*
X184030360Y-103670301D01*
X184071835Y-103662051D01*
X184253914Y-103586632D01*
X184417782Y-103477139D01*
X184557139Y-103337782D01*
X184666632Y-103173914D01*
X184742051Y-102991835D01*
X184778034Y-102810938D01*
X184780500Y-102798543D01*
X184780500Y-101601456D01*
X184742052Y-101408170D01*
X184742051Y-101408169D01*
X184742051Y-101408165D01*
X184737704Y-101397671D01*
X184666635Y-101226092D01*
X184666628Y-101226079D01*
X184557139Y-101062218D01*
X184557136Y-101062214D01*
X184417785Y-100922863D01*
X184417781Y-100922860D01*
X184253920Y-100813371D01*
X184253907Y-100813364D01*
X184071839Y-100737950D01*
X184071829Y-100737947D01*
X183878543Y-100699500D01*
X183878541Y-100699500D01*
X183681459Y-100699500D01*
X183681457Y-100699500D01*
X183488170Y-100737947D01*
X183488160Y-100737950D01*
X183306092Y-100813364D01*
X183306079Y-100813371D01*
X183142218Y-100922860D01*
X183142214Y-100922863D01*
X183002863Y-101062214D01*
X183002860Y-101062218D01*
X182893371Y-101226079D01*
X182893364Y-101226092D01*
X182817950Y-101408160D01*
X182817947Y-101408170D01*
X182779500Y-101601456D01*
X182779500Y-101601459D01*
X182779500Y-102798541D01*
X182779500Y-102798543D01*
X182779499Y-102798543D01*
X182240500Y-102798543D01*
X182240500Y-101601456D01*
X182202052Y-101408170D01*
X182202051Y-101408169D01*
X182202051Y-101408165D01*
X182197704Y-101397671D01*
X182126635Y-101226092D01*
X182126628Y-101226079D01*
X182017139Y-101062218D01*
X182017136Y-101062214D01*
X181877785Y-100922863D01*
X181877781Y-100922860D01*
X181713920Y-100813371D01*
X181713907Y-100813364D01*
X181531839Y-100737950D01*
X181531829Y-100737947D01*
X181338543Y-100699500D01*
X181338541Y-100699500D01*
X181141459Y-100699500D01*
X181141457Y-100699500D01*
X180948170Y-100737947D01*
X180948160Y-100737950D01*
X180766092Y-100813364D01*
X180766079Y-100813371D01*
X180602218Y-100922860D01*
X180602214Y-100922863D01*
X180462863Y-101062214D01*
X180462860Y-101062218D01*
X180353371Y-101226079D01*
X180353364Y-101226092D01*
X180277950Y-101408160D01*
X180277947Y-101408170D01*
X180239500Y-101601456D01*
X180239500Y-101601459D01*
X180239500Y-102798541D01*
X180239500Y-102798543D01*
X180239499Y-102798543D01*
X179700500Y-102798543D01*
X179700500Y-101601456D01*
X179662052Y-101408170D01*
X179662051Y-101408169D01*
X179662051Y-101408165D01*
X179657704Y-101397671D01*
X179586635Y-101226092D01*
X179586628Y-101226079D01*
X179477139Y-101062218D01*
X179477136Y-101062214D01*
X179337785Y-100922863D01*
X179337781Y-100922860D01*
X179173920Y-100813371D01*
X179173907Y-100813364D01*
X178991839Y-100737950D01*
X178991829Y-100737947D01*
X178798543Y-100699500D01*
X178798541Y-100699500D01*
X178601459Y-100699500D01*
X178577533Y-100704259D01*
X178544864Y-100701334D01*
X178512090Y-100699578D01*
X178510226Y-100698234D01*
X178507942Y-100698030D01*
X178482038Y-100677907D01*
X178455418Y-100658711D01*
X178454577Y-100656575D01*
X178452765Y-100655167D01*
X178441853Y-100624236D01*
X178429836Y-100593693D01*
X178429999Y-100590634D01*
X178429521Y-100589277D01*
X178431726Y-100558449D01*
X178438671Y-100523535D01*
X178438671Y-100523534D01*
X178450500Y-100464070D01*
X178450500Y-97735928D01*
X178425502Y-97610261D01*
X178425501Y-97610260D01*
X178425501Y-97610256D01*
X178376465Y-97491873D01*
X178305277Y-97385331D01*
X178305275Y-97385329D01*
X178305273Y-97385326D01*
X166564673Y-85644726D01*
X166564669Y-85644723D01*
X166458127Y-85573535D01*
X166339744Y-85524499D01*
X166339738Y-85524497D01*
X166214071Y-85499500D01*
X166214069Y-85499500D01*
X159270808Y-85499500D01*
X159203769Y-85479815D01*
X159183127Y-85463181D01*
X158850657Y-85130711D01*
X158817172Y-85069388D01*
X158817689Y-85021245D01*
X158816484Y-85021055D01*
X158850500Y-84806286D01*
X158850500Y-84593713D01*
X158817246Y-84383757D01*
X158794195Y-84312816D01*
X158792201Y-84242977D01*
X158828281Y-84183144D01*
X158890982Y-84152316D01*
X158912127Y-84150500D01*
X169679192Y-84150500D01*
X169746231Y-84170185D01*
G37*
%TD.AperFunction*%
%TA.AperFunction,Conductor*%
G36*
X227775329Y-68099790D02*
G01*
X227842346Y-68119551D01*
X227888041Y-68172407D01*
X227899188Y-68223852D01*
X227870298Y-126124766D01*
X227850580Y-126191796D01*
X227797753Y-126237524D01*
X227746157Y-126248704D01*
X141124359Y-126150293D01*
X141057342Y-126130532D01*
X141011647Y-126077676D01*
X141000500Y-126026293D01*
X141000500Y-101095730D01*
X164999500Y-101095730D01*
X164999500Y-103304269D01*
X165002353Y-103334699D01*
X165002353Y-103334701D01*
X165042874Y-103450500D01*
X165047207Y-103462882D01*
X165127850Y-103572150D01*
X165237118Y-103652793D01*
X165279845Y-103667744D01*
X165365299Y-103697646D01*
X165395730Y-103700500D01*
X165395734Y-103700500D01*
X166604270Y-103700500D01*
X166634699Y-103697646D01*
X166634701Y-103697646D01*
X166698790Y-103675219D01*
X166762882Y-103652793D01*
X166872150Y-103572150D01*
X166952793Y-103462882D01*
X166981323Y-103381349D01*
X166997646Y-103334701D01*
X166997646Y-103334699D01*
X167000500Y-103304269D01*
X167000500Y-101095730D01*
X166997646Y-101065300D01*
X166997646Y-101065298D01*
X166952793Y-100937119D01*
X166952792Y-100937117D01*
X166949433Y-100932566D01*
X166872150Y-100827850D01*
X166762882Y-100747207D01*
X166762880Y-100747206D01*
X166634700Y-100702353D01*
X166604270Y-100699500D01*
X166604266Y-100699500D01*
X165395734Y-100699500D01*
X165395730Y-100699500D01*
X165365300Y-100702353D01*
X165365298Y-100702353D01*
X165237119Y-100747206D01*
X165237117Y-100747207D01*
X165127850Y-100827850D01*
X165047207Y-100937117D01*
X165047206Y-100937119D01*
X165002353Y-101065298D01*
X165002353Y-101065300D01*
X164999500Y-101095730D01*
X141000500Y-101095730D01*
X141000500Y-71893713D01*
X143449500Y-71893713D01*
X143449500Y-72106286D01*
X143482753Y-72316239D01*
X143548444Y-72518414D01*
X143644951Y-72707820D01*
X143769890Y-72879786D01*
X143920213Y-73030109D01*
X144092182Y-73155050D01*
X144100946Y-73159516D01*
X144151742Y-73207491D01*
X144168536Y-73275312D01*
X144145998Y-73341447D01*
X144100946Y-73380484D01*
X144092182Y-73384949D01*
X143920213Y-73509890D01*
X143769890Y-73660213D01*
X143644951Y-73832179D01*
X143548444Y-74021585D01*
X143548443Y-74021587D01*
X143548443Y-74021588D01*
X143515598Y-74122672D01*
X143482753Y-74223760D01*
X143449500Y-74433713D01*
X143449500Y-74646286D01*
X143473786Y-74799626D01*
X143482754Y-74856243D01*
X143496281Y-74897876D01*
X143548444Y-75058414D01*
X143644951Y-75247820D01*
X143769890Y-75419786D01*
X143920213Y-75570109D01*
X144092182Y-75695050D01*
X144100946Y-75699516D01*
X144151742Y-75747491D01*
X144168536Y-75815312D01*
X144145998Y-75881447D01*
X144100946Y-75920484D01*
X144092182Y-75924949D01*
X143920213Y-76049890D01*
X143769890Y-76200213D01*
X143644951Y-76372179D01*
X143548444Y-76561585D01*
X143482753Y-76763760D01*
X143449500Y-76973713D01*
X143449500Y-77186286D01*
X143482753Y-77396239D01*
X143548444Y-77598414D01*
X143644951Y-77787820D01*
X143769890Y-77959786D01*
X143920213Y-78110109D01*
X144092182Y-78235050D01*
X144100946Y-78239516D01*
X144151742Y-78287491D01*
X144168536Y-78355312D01*
X144145998Y-78421447D01*
X144100946Y-78460484D01*
X144092182Y-78464949D01*
X143920213Y-78589890D01*
X143769890Y-78740213D01*
X143644951Y-78912179D01*
X143548444Y-79101585D01*
X143482753Y-79303760D01*
X143449500Y-79513713D01*
X143449500Y-79726287D01*
X143482754Y-79936243D01*
X143484379Y-79941245D01*
X143548444Y-80138414D01*
X143644951Y-80327820D01*
X143769890Y-80499786D01*
X143920213Y-80650109D01*
X144092182Y-80775050D01*
X144100946Y-80779516D01*
X144151742Y-80827491D01*
X144168536Y-80895312D01*
X144145998Y-80961447D01*
X144100946Y-81000484D01*
X144092182Y-81004949D01*
X143920213Y-81129890D01*
X143769890Y-81280213D01*
X143644951Y-81452179D01*
X143548444Y-81641585D01*
X143482753Y-81843760D01*
X143476214Y-81885047D01*
X143449500Y-82053713D01*
X143449500Y-82266287D01*
X143482754Y-82476243D01*
X143519947Y-82590712D01*
X143548444Y-82678414D01*
X143644951Y-82867820D01*
X143769890Y-83039786D01*
X143883430Y-83153326D01*
X143916915Y-83214649D01*
X143911931Y-83284341D01*
X143870059Y-83340274D01*
X143839083Y-83357189D01*
X143707669Y-83406203D01*
X143707664Y-83406206D01*
X143592455Y-83492452D01*
X143592452Y-83492455D01*
X143506206Y-83607664D01*
X143506202Y-83607671D01*
X143455908Y-83742517D01*
X143449501Y-83802116D01*
X143449500Y-83802135D01*
X143449500Y-85597870D01*
X143449501Y-85597876D01*
X143455908Y-85657483D01*
X143506202Y-85792328D01*
X143506206Y-85792335D01*
X143592452Y-85907544D01*
X143592455Y-85907547D01*
X143707664Y-85993793D01*
X143707671Y-85993797D01*
X143842517Y-86044091D01*
X143842516Y-86044091D01*
X143849444Y-86044835D01*
X143902127Y-86050500D01*
X145697872Y-86050499D01*
X145757483Y-86044091D01*
X145892331Y-85993796D01*
X146007546Y-85907546D01*
X146093796Y-85792331D01*
X146144091Y-85657483D01*
X146150500Y-85597873D01*
X146150499Y-84729806D01*
X146170183Y-84662768D01*
X146222987Y-84617013D01*
X146292146Y-84607069D01*
X146355702Y-84636094D01*
X146362180Y-84642126D01*
X147990276Y-86270223D01*
X147990282Y-86270228D01*
X148096825Y-86341417D01*
X148166172Y-86370140D01*
X148215207Y-86390452D01*
X148215210Y-86390452D01*
X148215211Y-86390453D01*
X148340879Y-86415451D01*
X148340882Y-86415451D01*
X154179192Y-86415451D01*
X154246231Y-86435136D01*
X154266873Y-86451770D01*
X168338427Y-100523324D01*
X168371912Y-100584647D01*
X168366928Y-100654339D01*
X168325056Y-100710272D01*
X168274942Y-100732622D01*
X168248164Y-100737949D01*
X168248160Y-100737950D01*
X168066092Y-100813364D01*
X168066079Y-100813371D01*
X167902218Y-100922860D01*
X167902214Y-100922863D01*
X167762863Y-101062214D01*
X167762860Y-101062218D01*
X167653371Y-101226079D01*
X167653364Y-101226092D01*
X167577950Y-101408160D01*
X167577947Y-101408170D01*
X167539500Y-101601456D01*
X167539500Y-104094218D01*
X167519815Y-104161257D01*
X167503181Y-104181899D01*
X167121899Y-104563181D01*
X167060576Y-104596666D01*
X167034218Y-104599500D01*
X160601454Y-104599500D01*
X160569391Y-104605876D01*
X160569392Y-104605877D01*
X160408170Y-104637946D01*
X160408164Y-104637948D01*
X160226088Y-104713366D01*
X160226079Y-104713371D01*
X160062219Y-104822859D01*
X160062215Y-104822862D01*
X153510862Y-111374217D01*
X151499720Y-113385359D01*
X151499718Y-113385361D01*
X151430038Y-113455040D01*
X151360359Y-113524719D01*
X151250871Y-113688579D01*
X151250864Y-113688592D01*
X151209466Y-113788540D01*
X151183058Y-113852297D01*
X151178949Y-113862216D01*
X151178946Y-113862223D01*
X151175450Y-113870660D01*
X151175447Y-113870669D01*
X151137000Y-114063956D01*
X151137000Y-115238538D01*
X151118539Y-115303634D01*
X151040189Y-115430659D01*
X151040185Y-115430668D01*
X151027721Y-115468282D01*
X150985001Y-115597203D01*
X150985001Y-115597204D01*
X150985000Y-115597204D01*
X150974500Y-115699983D01*
X150974500Y-117100001D01*
X150974501Y-117100018D01*
X150985000Y-117202796D01*
X150985001Y-117202799D01*
X151040185Y-117369331D01*
X151040187Y-117369336D01*
X151049618Y-117384626D01*
X151132288Y-117518656D01*
X151256344Y-117642712D01*
X151405666Y-117734814D01*
X151572203Y-117789999D01*
X151674991Y-117800500D01*
X152600008Y-117800499D01*
X152600016Y-117800498D01*
X152600019Y-117800498D01*
X152656302Y-117794748D01*
X152702797Y-117789999D01*
X152869334Y-117734814D01*
X153018656Y-117642712D01*
X153142712Y-117518656D01*
X153234814Y-117369334D01*
X153289999Y-117202797D01*
X153300500Y-117100009D01*
X153300500Y-117099986D01*
X154100001Y-117099986D01*
X154110494Y-117202697D01*
X154165641Y-117369119D01*
X154165643Y-117369124D01*
X154257684Y-117518345D01*
X154381654Y-117642315D01*
X154530875Y-117734356D01*
X154530880Y-117734358D01*
X154697302Y-117789505D01*
X154697309Y-117789506D01*
X154800019Y-117799999D01*
X155012499Y-117799999D01*
X155512500Y-117799999D01*
X155724972Y-117799999D01*
X155724986Y-117799998D01*
X155827697Y-117789505D01*
X155994119Y-117734358D01*
X155994124Y-117734356D01*
X156143345Y-117642315D01*
X156267315Y-117518345D01*
X156359356Y-117369124D01*
X156359358Y-117369119D01*
X156414505Y-117202697D01*
X156414506Y-117202690D01*
X156424999Y-117099986D01*
X156425000Y-117099973D01*
X156425000Y-116650000D01*
X155512500Y-116650000D01*
X155512500Y-117799999D01*
X155012499Y-117799999D01*
X155012500Y-117799998D01*
X155012500Y-116650000D01*
X154100001Y-116650000D01*
X154100001Y-117099986D01*
X153300500Y-117099986D01*
X153300499Y-116336246D01*
X153300499Y-115700013D01*
X154100000Y-115700013D01*
X154100000Y-116150000D01*
X155012500Y-116150000D01*
X155512500Y-116150000D01*
X156424999Y-116150000D01*
X156424999Y-115700028D01*
X156424998Y-115700013D01*
X156414505Y-115597302D01*
X156359358Y-115430880D01*
X156359356Y-115430875D01*
X156267315Y-115281654D01*
X156143345Y-115157684D01*
X155994124Y-115065643D01*
X155994119Y-115065641D01*
X155827697Y-115010494D01*
X155827690Y-115010493D01*
X155724986Y-115000000D01*
X155512500Y-115000000D01*
X155512500Y-116150000D01*
X155012500Y-116150000D01*
X155012500Y-115000000D01*
X154800029Y-115000000D01*
X154800012Y-115000001D01*
X154697302Y-115010494D01*
X154530880Y-115065641D01*
X154530875Y-115065643D01*
X154381654Y-115157684D01*
X154257684Y-115281654D01*
X154165643Y-115430875D01*
X154165641Y-115430880D01*
X154110494Y-115597302D01*
X154110493Y-115597309D01*
X154100000Y-115700013D01*
X153300499Y-115700013D01*
X153300499Y-115699998D01*
X153300498Y-115699981D01*
X153289999Y-115597203D01*
X153289998Y-115597200D01*
X153267765Y-115530105D01*
X153234814Y-115430666D01*
X153214587Y-115397872D01*
X153156461Y-115303634D01*
X153138000Y-115238538D01*
X153138000Y-114628282D01*
X153157685Y-114561243D01*
X153174319Y-114540601D01*
X158973796Y-108741125D01*
X161078102Y-106636819D01*
X161139425Y-106603334D01*
X161165783Y-106600500D01*
X167598542Y-106600500D01*
X167629566Y-106594328D01*
X167695188Y-106581275D01*
X167791836Y-106562051D01*
X167845165Y-106539961D01*
X167973914Y-106486632D01*
X168137782Y-106377139D01*
X168277139Y-106237782D01*
X168277140Y-106237779D01*
X168284206Y-106230714D01*
X168284209Y-106230710D01*
X169177778Y-105337141D01*
X169177782Y-105337139D01*
X169317139Y-105197782D01*
X169426632Y-105033914D01*
X169502051Y-104851835D01*
X169540500Y-104658541D01*
X169541097Y-104652481D01*
X169542607Y-104652629D01*
X169560185Y-104592768D01*
X169612989Y-104547013D01*
X169682147Y-104537069D01*
X169745703Y-104566094D01*
X169752181Y-104572126D01*
X175794724Y-110614669D01*
X175841795Y-110661740D01*
X175885332Y-110705277D01*
X175991866Y-110776461D01*
X175991872Y-110776464D01*
X175991873Y-110776465D01*
X176110256Y-110825501D01*
X176110260Y-110825501D01*
X176110261Y-110825502D01*
X176235928Y-110850500D01*
X176235931Y-110850500D01*
X188844071Y-110850500D01*
X188928615Y-110833682D01*
X188969744Y-110825501D01*
X189088127Y-110776465D01*
X189112612Y-110760105D01*
X189112613Y-110760105D01*
X189174015Y-110719077D01*
X189194669Y-110705277D01*
X196182778Y-103717166D01*
X196244099Y-103683683D01*
X196294649Y-103683232D01*
X196381457Y-103700500D01*
X196381459Y-103700500D01*
X196578543Y-103700500D01*
X196730360Y-103670301D01*
X196771835Y-103662051D01*
X196953914Y-103586632D01*
X197117782Y-103477139D01*
X197257139Y-103337782D01*
X197366632Y-103173914D01*
X197442051Y-102991835D01*
X197478034Y-102810938D01*
X197480500Y-102798543D01*
X197480500Y-102470808D01*
X197500185Y-102403769D01*
X197516819Y-102383127D01*
X197807819Y-102092127D01*
X197869142Y-102058642D01*
X197938834Y-102063626D01*
X197994767Y-102105498D01*
X198019184Y-102170962D01*
X198019500Y-102179808D01*
X198019500Y-102798541D01*
X198019500Y-102798543D01*
X198019499Y-102798543D01*
X198057947Y-102991829D01*
X198057950Y-102991839D01*
X198133364Y-103173907D01*
X198133371Y-103173920D01*
X198242860Y-103337781D01*
X198242863Y-103337785D01*
X198382214Y-103477136D01*
X198382218Y-103477139D01*
X198546079Y-103586628D01*
X198546092Y-103586635D01*
X198705814Y-103652793D01*
X198728165Y-103662051D01*
X198728169Y-103662051D01*
X198728170Y-103662052D01*
X198921456Y-103700500D01*
X198921459Y-103700500D01*
X199118543Y-103700500D01*
X199270360Y-103670301D01*
X199311835Y-103662051D01*
X199493914Y-103586632D01*
X199657782Y-103477139D01*
X199797139Y-103337782D01*
X199906632Y-103173914D01*
X199982051Y-102991835D01*
X200018034Y-102810938D01*
X200020500Y-102798543D01*
X200559499Y-102798543D01*
X200597947Y-102991829D01*
X200597950Y-102991839D01*
X200673364Y-103173907D01*
X200673371Y-103173920D01*
X200782860Y-103337781D01*
X200782863Y-103337785D01*
X200922214Y-103477136D01*
X200922218Y-103477139D01*
X201086079Y-103586628D01*
X201086092Y-103586635D01*
X201245814Y-103652793D01*
X201268165Y-103662051D01*
X201268169Y-103662051D01*
X201268170Y-103662052D01*
X201461456Y-103700500D01*
X201461459Y-103700500D01*
X201658543Y-103700500D01*
X201810360Y-103670301D01*
X201851835Y-103662051D01*
X202033914Y-103586632D01*
X202197782Y-103477139D01*
X202337139Y-103337782D01*
X202446632Y-103173914D01*
X202522051Y-102991835D01*
X202558034Y-102810938D01*
X202560500Y-102798543D01*
X203099499Y-102798543D01*
X203137947Y-102991829D01*
X203137950Y-102991839D01*
X203213364Y-103173907D01*
X203213371Y-103173920D01*
X203322860Y-103337781D01*
X203322863Y-103337785D01*
X203462214Y-103477136D01*
X203462218Y-103477139D01*
X203626079Y-103586628D01*
X203626092Y-103586635D01*
X203785814Y-103652793D01*
X203808165Y-103662051D01*
X203808169Y-103662051D01*
X203808170Y-103662052D01*
X204001456Y-103700500D01*
X204001459Y-103700500D01*
X204198543Y-103700500D01*
X204350360Y-103670301D01*
X204391835Y-103662051D01*
X204573914Y-103586632D01*
X204737782Y-103477139D01*
X204877139Y-103337782D01*
X204986632Y-103173914D01*
X205062051Y-102991835D01*
X205098034Y-102810938D01*
X205100500Y-102798543D01*
X205100500Y-101601456D01*
X205062052Y-101408170D01*
X205062051Y-101408169D01*
X205062051Y-101408165D01*
X205057704Y-101397671D01*
X204986635Y-101226092D01*
X204986628Y-101226079D01*
X204877139Y-101062218D01*
X204877136Y-101062214D01*
X204737785Y-100922863D01*
X204737781Y-100922860D01*
X204573920Y-100813371D01*
X204573907Y-100813364D01*
X204391839Y-100737950D01*
X204391829Y-100737947D01*
X204198543Y-100699500D01*
X204198541Y-100699500D01*
X204001459Y-100699500D01*
X204001457Y-100699500D01*
X203808170Y-100737947D01*
X203808160Y-100737950D01*
X203626092Y-100813364D01*
X203626079Y-100813371D01*
X203462218Y-100922860D01*
X203462214Y-100922863D01*
X203322863Y-101062214D01*
X203322860Y-101062218D01*
X203213371Y-101226079D01*
X203213364Y-101226092D01*
X203137950Y-101408160D01*
X203137947Y-101408170D01*
X203099500Y-101601456D01*
X203099500Y-101601459D01*
X203099500Y-102798541D01*
X203099500Y-102798543D01*
X203099499Y-102798543D01*
X202560500Y-102798543D01*
X202560500Y-101601456D01*
X202522052Y-101408170D01*
X202522051Y-101408169D01*
X202522051Y-101408165D01*
X202517704Y-101397671D01*
X202446635Y-101226092D01*
X202446628Y-101226079D01*
X202337139Y-101062218D01*
X202337136Y-101062214D01*
X202197785Y-100922863D01*
X202197781Y-100922860D01*
X202033920Y-100813371D01*
X202033907Y-100813364D01*
X201851839Y-100737950D01*
X201851829Y-100737947D01*
X201658543Y-100699500D01*
X201658541Y-100699500D01*
X201461459Y-100699500D01*
X201461457Y-100699500D01*
X201268170Y-100737947D01*
X201268160Y-100737950D01*
X201086092Y-100813364D01*
X201086079Y-100813371D01*
X200922218Y-100922860D01*
X200922214Y-100922863D01*
X200782863Y-101062214D01*
X200782860Y-101062218D01*
X200673371Y-101226079D01*
X200673364Y-101226092D01*
X200597950Y-101408160D01*
X200597947Y-101408170D01*
X200559500Y-101601456D01*
X200559500Y-101601459D01*
X200559500Y-102798541D01*
X200559500Y-102798543D01*
X200559499Y-102798543D01*
X200020500Y-102798543D01*
X200020500Y-101601456D01*
X199982052Y-101408170D01*
X199982051Y-101408169D01*
X199982051Y-101408165D01*
X199977704Y-101397671D01*
X199906635Y-101226092D01*
X199906628Y-101226079D01*
X199797139Y-101062218D01*
X199797136Y-101062214D01*
X199657785Y-100922863D01*
X199657781Y-100922860D01*
X199493920Y-100813371D01*
X199493910Y-100813366D01*
X199377335Y-100765079D01*
X199322932Y-100721238D01*
X199300867Y-100654944D01*
X199318146Y-100587244D01*
X199337103Y-100562841D01*
X206923127Y-92976819D01*
X206984450Y-92943334D01*
X207010808Y-92940500D01*
X220419377Y-92940500D01*
X220486416Y-92960185D01*
X220529862Y-93008206D01*
X220544949Y-93037817D01*
X220669890Y-93209786D01*
X220820213Y-93360109D01*
X220992182Y-93485050D01*
X221000946Y-93489516D01*
X221051742Y-93537491D01*
X221068536Y-93605312D01*
X221045998Y-93671447D01*
X221000946Y-93710484D01*
X220992182Y-93714949D01*
X220820213Y-93839890D01*
X220669890Y-93990213D01*
X220544951Y-94162179D01*
X220448444Y-94351585D01*
X220382753Y-94553760D01*
X220349500Y-94763713D01*
X220349500Y-94976286D01*
X220382753Y-95186239D01*
X220448444Y-95388414D01*
X220544951Y-95577820D01*
X220669890Y-95749786D01*
X220820213Y-95900109D01*
X220992179Y-96025048D01*
X220992181Y-96025049D01*
X220992184Y-96025051D01*
X221001493Y-96029794D01*
X221052290Y-96077766D01*
X221069087Y-96145587D01*
X221046552Y-96211722D01*
X221001505Y-96250760D01*
X220992446Y-96255376D01*
X220992440Y-96255380D01*
X220938282Y-96294727D01*
X220938282Y-96294728D01*
X221570591Y-96927037D01*
X221507007Y-96944075D01*
X221392993Y-97009901D01*
X221299901Y-97102993D01*
X221234075Y-97217007D01*
X221217037Y-97280591D01*
X220584728Y-96648282D01*
X220584727Y-96648282D01*
X220545380Y-96702439D01*
X220448904Y-96891782D01*
X220383242Y-97093869D01*
X220383242Y-97093872D01*
X220350000Y-97303753D01*
X220350000Y-97516246D01*
X220383242Y-97726127D01*
X220383242Y-97726130D01*
X220448904Y-97928217D01*
X220545375Y-98117550D01*
X220584728Y-98171716D01*
X221217037Y-97539408D01*
X221234075Y-97602993D01*
X221299901Y-97717007D01*
X221392993Y-97810099D01*
X221507007Y-97875925D01*
X221570590Y-97892962D01*
X220938282Y-98525269D01*
X220938282Y-98525270D01*
X220992452Y-98564626D01*
X220992451Y-98564626D01*
X221001495Y-98569234D01*
X221052292Y-98617208D01*
X221069087Y-98685029D01*
X221046550Y-98751164D01*
X221001499Y-98790202D01*
X220992182Y-98794949D01*
X220820213Y-98919890D01*
X220669890Y-99070213D01*
X220544951Y-99242179D01*
X220448444Y-99431585D01*
X220382753Y-99633760D01*
X220349500Y-99843713D01*
X220349500Y-100056287D01*
X220382754Y-100266243D01*
X220447032Y-100464070D01*
X220448444Y-100468414D01*
X220544951Y-100657820D01*
X220669890Y-100829786D01*
X220783430Y-100943326D01*
X220816915Y-101004649D01*
X220811931Y-101074341D01*
X220770059Y-101130274D01*
X220739083Y-101147189D01*
X220607669Y-101196203D01*
X220607664Y-101196206D01*
X220492456Y-101282452D01*
X220492455Y-101282453D01*
X220492454Y-101282454D01*
X220406204Y-101397669D01*
X220406203Y-101397670D01*
X220404601Y-101399811D01*
X220348667Y-101441682D01*
X220305334Y-101449500D01*
X216641456Y-101449500D01*
X216448171Y-101487947D01*
X216448168Y-101487948D01*
X216448167Y-101487948D01*
X216448164Y-101487949D01*
X216420278Y-101499500D01*
X216420276Y-101499501D01*
X216420275Y-101499500D01*
X216266086Y-101563367D01*
X216223045Y-101592127D01*
X216102217Y-101672860D01*
X216102214Y-101672863D01*
X205471897Y-112303181D01*
X205410574Y-112336666D01*
X205384216Y-112339500D01*
X204602129Y-112339500D01*
X204602123Y-112339501D01*
X204542516Y-112345908D01*
X204407671Y-112396202D01*
X204407664Y-112396206D01*
X204292455Y-112482452D01*
X204292452Y-112482455D01*
X204206206Y-112597664D01*
X204206202Y-112597671D01*
X204155908Y-112732517D01*
X204149501Y-112792116D01*
X204149500Y-112792135D01*
X204149500Y-114587870D01*
X204149501Y-114587876D01*
X204155908Y-114647483D01*
X204206202Y-114782328D01*
X204206206Y-114782335D01*
X204292452Y-114897544D01*
X204292455Y-114897547D01*
X204407664Y-114983793D01*
X204407671Y-114983797D01*
X204451114Y-115000000D01*
X204542517Y-115034091D01*
X204602127Y-115040500D01*
X204612685Y-115040499D01*
X204679723Y-115060179D01*
X204700372Y-115076818D01*
X205370591Y-115747037D01*
X205307007Y-115764075D01*
X205192993Y-115829901D01*
X205099901Y-115922993D01*
X205034075Y-116037007D01*
X205017037Y-116100591D01*
X204384728Y-115468282D01*
X204384727Y-115468282D01*
X204345380Y-115522439D01*
X204248904Y-115711782D01*
X204183242Y-115913869D01*
X204183242Y-115913872D01*
X204150000Y-116123753D01*
X204150000Y-116336246D01*
X204183242Y-116546127D01*
X204183242Y-116546130D01*
X204248904Y-116748217D01*
X204345375Y-116937550D01*
X204384728Y-116991716D01*
X205017037Y-116359408D01*
X205034075Y-116422993D01*
X205099901Y-116537007D01*
X205192993Y-116630099D01*
X205307007Y-116695925D01*
X205370590Y-116712962D01*
X204738282Y-117345269D01*
X204738282Y-117345270D01*
X204792452Y-117384626D01*
X204792451Y-117384626D01*
X204801495Y-117389234D01*
X204852292Y-117437208D01*
X204869087Y-117505029D01*
X204846550Y-117571164D01*
X204801499Y-117610202D01*
X204792182Y-117614949D01*
X204616266Y-117742759D01*
X204615635Y-117741891D01*
X204556581Y-117768359D01*
X204539800Y-117769500D01*
X187131456Y-117769500D01*
X186938171Y-117807946D01*
X186938167Y-117807948D01*
X186938165Y-117807948D01*
X186938164Y-117807949D01*
X186862745Y-117839188D01*
X186862743Y-117839189D01*
X186756088Y-117883366D01*
X186693856Y-117924949D01*
X186693855Y-117924950D01*
X186592215Y-117992862D01*
X186592214Y-117992863D01*
X184840647Y-119744431D01*
X184779324Y-119777916D01*
X184752966Y-119780750D01*
X184356248Y-119780750D01*
X184356230Y-119780751D01*
X184253453Y-119791250D01*
X184253450Y-119791251D01*
X184086918Y-119846435D01*
X184086913Y-119846437D01*
X183937592Y-119938539D01*
X183813539Y-120062592D01*
X183721437Y-120211913D01*
X183721435Y-120211918D01*
X183721365Y-120212130D01*
X183666251Y-120378453D01*
X183666251Y-120378454D01*
X183666250Y-120378454D01*
X183655750Y-120481233D01*
X183655750Y-120877966D01*
X183636065Y-120945005D01*
X183619430Y-120965647D01*
X182567260Y-122017820D01*
X182221899Y-122363181D01*
X182160576Y-122396666D01*
X182134218Y-122399500D01*
X175624900Y-122399500D01*
X175557861Y-122379815D01*
X175512106Y-122327011D01*
X175502162Y-122257853D01*
X175531187Y-122194297D01*
X175585896Y-122157794D01*
X175656619Y-122134358D01*
X175656624Y-122134356D01*
X175805845Y-122042315D01*
X175929815Y-121918345D01*
X176021856Y-121769124D01*
X176021858Y-121769119D01*
X176077005Y-121602697D01*
X176077006Y-121602690D01*
X176087499Y-121499986D01*
X176087500Y-121499973D01*
X176087500Y-121050000D01*
X173762502Y-121050000D01*
X173761759Y-121050741D01*
X173742814Y-121115260D01*
X173690009Y-121161013D01*
X173620850Y-121170956D01*
X173557295Y-121141929D01*
X173550819Y-121135899D01*
X172999318Y-120584398D01*
X172965833Y-120523075D01*
X172962999Y-120496717D01*
X172962999Y-120100013D01*
X173762500Y-120100013D01*
X173762500Y-120550000D01*
X174675000Y-120550000D01*
X175175000Y-120550000D01*
X176087499Y-120550000D01*
X176087499Y-120100028D01*
X176087498Y-120100013D01*
X176077005Y-119997302D01*
X176021858Y-119830880D01*
X176021856Y-119830875D01*
X175929815Y-119681654D01*
X175805845Y-119557684D01*
X175656624Y-119465643D01*
X175656619Y-119465641D01*
X175490197Y-119410494D01*
X175490190Y-119410493D01*
X175387486Y-119400000D01*
X175175000Y-119400000D01*
X175175000Y-120550000D01*
X174675000Y-120550000D01*
X174675000Y-119400000D01*
X174462529Y-119400000D01*
X174462512Y-119400001D01*
X174359802Y-119410494D01*
X174193380Y-119465641D01*
X174193375Y-119465643D01*
X174044154Y-119557684D01*
X173920184Y-119681654D01*
X173828143Y-119830875D01*
X173828141Y-119830880D01*
X173772994Y-119997302D01*
X173772993Y-119997309D01*
X173762500Y-120100013D01*
X172962999Y-120100013D01*
X172962999Y-120099998D01*
X172962998Y-120099981D01*
X172952499Y-119997203D01*
X172952498Y-119997200D01*
X172940100Y-119959786D01*
X172897314Y-119830666D01*
X172805212Y-119681344D01*
X172681156Y-119557288D01*
X172531834Y-119465186D01*
X172365297Y-119410001D01*
X172365295Y-119410000D01*
X172262510Y-119399500D01*
X171337498Y-119399500D01*
X171337480Y-119399501D01*
X171234703Y-119410000D01*
X171234700Y-119410001D01*
X171068168Y-119465185D01*
X171068163Y-119465187D01*
X170918842Y-119557289D01*
X170794789Y-119681342D01*
X170758241Y-119740597D01*
X170706293Y-119787321D01*
X170652702Y-119799500D01*
X170265783Y-119799500D01*
X170198744Y-119779815D01*
X170178102Y-119763181D01*
X166405677Y-115990756D01*
X166372192Y-115929433D01*
X166377176Y-115859741D01*
X166419048Y-115803808D01*
X166455036Y-115785146D01*
X166558412Y-115751557D01*
X166747816Y-115655051D01*
X166827292Y-115597309D01*
X166919786Y-115530109D01*
X166919788Y-115530106D01*
X166919792Y-115530104D01*
X167070104Y-115379792D01*
X167070106Y-115379788D01*
X167070109Y-115379786D01*
X167155890Y-115261717D01*
X167195051Y-115207816D01*
X167199793Y-115198508D01*
X167247763Y-115147711D01*
X167315583Y-115130911D01*
X167381719Y-115153445D01*
X167420763Y-115198500D01*
X167425373Y-115207547D01*
X167464728Y-115261716D01*
X168097037Y-114629408D01*
X168114075Y-114692993D01*
X168179901Y-114807007D01*
X168272993Y-114900099D01*
X168387007Y-114965925D01*
X168450590Y-114982962D01*
X167818282Y-115615269D01*
X167818282Y-115615270D01*
X167872449Y-115654624D01*
X168061782Y-115751095D01*
X168263870Y-115816757D01*
X168473754Y-115850000D01*
X168686246Y-115850000D01*
X168896127Y-115816757D01*
X168896130Y-115816757D01*
X169098217Y-115751095D01*
X169287554Y-115654622D01*
X169341716Y-115615270D01*
X169341717Y-115615270D01*
X168709408Y-114982962D01*
X168772993Y-114965925D01*
X168887007Y-114900099D01*
X168980099Y-114807007D01*
X169045925Y-114692993D01*
X169062962Y-114629408D01*
X169695270Y-115261717D01*
X169695270Y-115261716D01*
X169734622Y-115207554D01*
X169831095Y-115018217D01*
X169896757Y-114816130D01*
X169896757Y-114816127D01*
X169930000Y-114606246D01*
X169930000Y-114393753D01*
X169896757Y-114183872D01*
X169896757Y-114183869D01*
X169831095Y-113981782D01*
X169734624Y-113792449D01*
X169695270Y-113738282D01*
X169695269Y-113738282D01*
X169062962Y-114370590D01*
X169045925Y-114307007D01*
X168980099Y-114192993D01*
X168887007Y-114099901D01*
X168772993Y-114034075D01*
X168709409Y-114017037D01*
X169341716Y-113384728D01*
X169287550Y-113345375D01*
X169098217Y-113248904D01*
X168896129Y-113183242D01*
X168686246Y-113150000D01*
X168473754Y-113150000D01*
X168263872Y-113183242D01*
X168263869Y-113183242D01*
X168061782Y-113248904D01*
X167872439Y-113345380D01*
X167818282Y-113384727D01*
X167818282Y-113384728D01*
X168450591Y-114017037D01*
X168387007Y-114034075D01*
X168272993Y-114099901D01*
X168179901Y-114192993D01*
X168114075Y-114307007D01*
X168097037Y-114370591D01*
X167464728Y-113738282D01*
X167464727Y-113738282D01*
X167425380Y-113792440D01*
X167425376Y-113792446D01*
X167420760Y-113801505D01*
X167372781Y-113852297D01*
X167304959Y-113869087D01*
X167238826Y-113846543D01*
X167199794Y-113801493D01*
X167195051Y-113792184D01*
X167195049Y-113792181D01*
X167195048Y-113792179D01*
X167070109Y-113620213D01*
X166919786Y-113469890D01*
X166747820Y-113344951D01*
X166558414Y-113248444D01*
X166558413Y-113248443D01*
X166558412Y-113248443D01*
X166356243Y-113182754D01*
X166356241Y-113182753D01*
X166356240Y-113182753D01*
X166194957Y-113157208D01*
X166146287Y-113149500D01*
X165933713Y-113149500D01*
X165885042Y-113157208D01*
X165723760Y-113182753D01*
X165521585Y-113248444D01*
X165332179Y-113344951D01*
X165160215Y-113469889D01*
X165046673Y-113583431D01*
X164985350Y-113616915D01*
X164915658Y-113611931D01*
X164859725Y-113570059D01*
X164842810Y-113539082D01*
X164793797Y-113407671D01*
X164793793Y-113407664D01*
X164707547Y-113292455D01*
X164707544Y-113292452D01*
X164592335Y-113206206D01*
X164592332Y-113206205D01*
X164592331Y-113206204D01*
X164581161Y-113202038D01*
X164525231Y-113160166D01*
X164500816Y-113094701D01*
X164500500Y-113085858D01*
X164500500Y-110894721D01*
X164509444Y-110848481D01*
X164515499Y-110833413D01*
X164523796Y-110822331D01*
X164573358Y-110689447D01*
X164573936Y-110688010D01*
X164594651Y-110661740D01*
X164614681Y-110634984D01*
X164616196Y-110634418D01*
X164617200Y-110633146D01*
X164648831Y-110622245D01*
X164680145Y-110610566D01*
X164681727Y-110610910D01*
X164683257Y-110610383D01*
X164715726Y-110618305D01*
X164748418Y-110625417D01*
X164750133Y-110626701D01*
X164751136Y-110626946D01*
X164752805Y-110628701D01*
X164776673Y-110646569D01*
X164890213Y-110760109D01*
X165062179Y-110885048D01*
X165062181Y-110885049D01*
X165062184Y-110885051D01*
X165251588Y-110981557D01*
X165453757Y-111047246D01*
X165663713Y-111080500D01*
X165663714Y-111080500D01*
X165876286Y-111080500D01*
X165876287Y-111080500D01*
X166086243Y-111047246D01*
X166288412Y-110981557D01*
X166477816Y-110885051D01*
X166559780Y-110825501D01*
X166649786Y-110760109D01*
X166649788Y-110760106D01*
X166649792Y-110760104D01*
X166800104Y-110609792D01*
X166800106Y-110609788D01*
X166800109Y-110609786D01*
X166885890Y-110491717D01*
X166925051Y-110437816D01*
X166929793Y-110428508D01*
X166977763Y-110377711D01*
X167045583Y-110360911D01*
X167111719Y-110383445D01*
X167150763Y-110428500D01*
X167155373Y-110437547D01*
X167194728Y-110491716D01*
X167827037Y-109859408D01*
X167844075Y-109922993D01*
X167909901Y-110037007D01*
X168002993Y-110130099D01*
X168117007Y-110195925D01*
X168180590Y-110212962D01*
X167548282Y-110845269D01*
X167548282Y-110845270D01*
X167602449Y-110884624D01*
X167791782Y-110981095D01*
X167993870Y-111046757D01*
X168203754Y-111080000D01*
X168416246Y-111080000D01*
X168626127Y-111046757D01*
X168626130Y-111046757D01*
X168828217Y-110981095D01*
X169017554Y-110884622D01*
X169071716Y-110845270D01*
X169071717Y-110845270D01*
X168439408Y-110212962D01*
X168502993Y-110195925D01*
X168617007Y-110130099D01*
X168710099Y-110037007D01*
X168775925Y-109922993D01*
X168792962Y-109859409D01*
X169425270Y-110491717D01*
X169425270Y-110491716D01*
X169464622Y-110437554D01*
X169561095Y-110248217D01*
X169626757Y-110046130D01*
X169626757Y-110046127D01*
X169660000Y-109836246D01*
X169660000Y-109623753D01*
X169626757Y-109413872D01*
X169626757Y-109413869D01*
X169561095Y-109211782D01*
X169464624Y-109022449D01*
X169425270Y-108968282D01*
X169425269Y-108968282D01*
X168792962Y-109600590D01*
X168775925Y-109537007D01*
X168710099Y-109422993D01*
X168617007Y-109329901D01*
X168502993Y-109264075D01*
X168439409Y-109247037D01*
X169071716Y-108614728D01*
X169017550Y-108575375D01*
X168828217Y-108478904D01*
X168626129Y-108413242D01*
X168416246Y-108380000D01*
X168203754Y-108380000D01*
X167993872Y-108413242D01*
X167993869Y-108413242D01*
X167791782Y-108478904D01*
X167602439Y-108575380D01*
X167548282Y-108614727D01*
X167548282Y-108614728D01*
X168180591Y-109247037D01*
X168117007Y-109264075D01*
X168002993Y-109329901D01*
X167909901Y-109422993D01*
X167844075Y-109537007D01*
X167827037Y-109600591D01*
X167194728Y-108968282D01*
X167194727Y-108968282D01*
X167155380Y-109022440D01*
X167155376Y-109022446D01*
X167150760Y-109031505D01*
X167102781Y-109082297D01*
X167034959Y-109099087D01*
X166968826Y-109076543D01*
X166929794Y-109031493D01*
X166925051Y-109022184D01*
X166925049Y-109022181D01*
X166925048Y-109022179D01*
X166800109Y-108850213D01*
X166649786Y-108699890D01*
X166477820Y-108574951D01*
X166288414Y-108478444D01*
X166288413Y-108478443D01*
X166288412Y-108478443D01*
X166086243Y-108412754D01*
X166086241Y-108412753D01*
X166086240Y-108412753D01*
X165924957Y-108387208D01*
X165876287Y-108379500D01*
X165663713Y-108379500D01*
X165615042Y-108387208D01*
X165453760Y-108412753D01*
X165251585Y-108478444D01*
X165062179Y-108574951D01*
X164890215Y-108699889D01*
X164776673Y-108813431D01*
X164715350Y-108846915D01*
X164645658Y-108841931D01*
X164589725Y-108800059D01*
X164572810Y-108769082D01*
X164523797Y-108637671D01*
X164523793Y-108637664D01*
X164437547Y-108522455D01*
X164437544Y-108522452D01*
X164322335Y-108436206D01*
X164322328Y-108436202D01*
X164187482Y-108385908D01*
X164187483Y-108385908D01*
X164127883Y-108379501D01*
X164127881Y-108379500D01*
X164127873Y-108379500D01*
X164127864Y-108379500D01*
X162332129Y-108379500D01*
X162332123Y-108379501D01*
X162272516Y-108385908D01*
X162137671Y-108436202D01*
X162137664Y-108436206D01*
X162022455Y-108522452D01*
X162022452Y-108522455D01*
X161936206Y-108637664D01*
X161936202Y-108637671D01*
X161885908Y-108772517D01*
X161879501Y-108832116D01*
X161879500Y-108832135D01*
X161879500Y-110627870D01*
X161879501Y-110627876D01*
X161885908Y-110687483D01*
X161936202Y-110822328D01*
X161936206Y-110822335D01*
X162022452Y-110937544D01*
X162022455Y-110937547D01*
X162137664Y-111023793D01*
X162137671Y-111023797D01*
X162182618Y-111040561D01*
X162272517Y-111074091D01*
X162332127Y-111080500D01*
X162375499Y-111080499D01*
X162442537Y-111100182D01*
X162488293Y-111152985D01*
X162499500Y-111204499D01*
X162499500Y-113085858D01*
X162479815Y-113152897D01*
X162427011Y-113198652D01*
X162418847Y-113202034D01*
X162407669Y-113206204D01*
X162407664Y-113206206D01*
X162292455Y-113292452D01*
X162292452Y-113292455D01*
X162206206Y-113407664D01*
X162206202Y-113407671D01*
X162155908Y-113542517D01*
X162149501Y-113602116D01*
X162149500Y-113602135D01*
X162149500Y-115397870D01*
X162149501Y-115397876D01*
X162155908Y-115457483D01*
X162206202Y-115592328D01*
X162206206Y-115592335D01*
X162292452Y-115707544D01*
X162292455Y-115707547D01*
X162407664Y-115793793D01*
X162407671Y-115793797D01*
X162542517Y-115844091D01*
X162542516Y-115844091D01*
X162549444Y-115844835D01*
X162602127Y-115850500D01*
X163384217Y-115850499D01*
X163451256Y-115870183D01*
X163471897Y-115886817D01*
X169022860Y-121437781D01*
X169022861Y-121437782D01*
X169162218Y-121577139D01*
X169162219Y-121577140D01*
X169200468Y-121602697D01*
X169326086Y-121686632D01*
X169432745Y-121730811D01*
X169508164Y-121762051D01*
X169701454Y-121800499D01*
X169701457Y-121800500D01*
X169701459Y-121800500D01*
X169898540Y-121800500D01*
X170652702Y-121800500D01*
X170719741Y-121820185D01*
X170758239Y-121859401D01*
X170794788Y-121918656D01*
X170918844Y-122042712D01*
X171068166Y-122134814D01*
X171234703Y-122189999D01*
X171337491Y-122200500D01*
X171734217Y-122200499D01*
X171801256Y-122220183D01*
X171821897Y-122236817D01*
X173622860Y-124037781D01*
X173622861Y-124037782D01*
X173762218Y-124177139D01*
X173762219Y-124177140D01*
X173926079Y-124286628D01*
X173926092Y-124286635D01*
X174054833Y-124339961D01*
X174097744Y-124357735D01*
X174108164Y-124362051D01*
X174204812Y-124381275D01*
X174253135Y-124390887D01*
X174301458Y-124400500D01*
X174301459Y-124400500D01*
X182698542Y-124400500D01*
X182729566Y-124394328D01*
X182795188Y-124381275D01*
X182891836Y-124362051D01*
X182945165Y-124339961D01*
X183073914Y-124286632D01*
X183237782Y-124177139D01*
X183377139Y-124037782D01*
X183377139Y-124037780D01*
X183387347Y-124027573D01*
X183387348Y-124027570D01*
X184796852Y-122618068D01*
X184858175Y-122584583D01*
X184884533Y-122581749D01*
X185281252Y-122581749D01*
X185281258Y-122581749D01*
X185384047Y-122571249D01*
X185550584Y-122516064D01*
X185699906Y-122423962D01*
X185823962Y-122299906D01*
X185916064Y-122150584D01*
X185971249Y-121984047D01*
X185981750Y-121881259D01*
X185981750Y-121881236D01*
X186781251Y-121881236D01*
X186791744Y-121983947D01*
X186846891Y-122150369D01*
X186846893Y-122150374D01*
X186938934Y-122299595D01*
X187062904Y-122423565D01*
X187212125Y-122515606D01*
X187212130Y-122515608D01*
X187378552Y-122570755D01*
X187378559Y-122570756D01*
X187481269Y-122581249D01*
X187693749Y-122581249D01*
X188193750Y-122581249D01*
X188406222Y-122581249D01*
X188406236Y-122581248D01*
X188508947Y-122570755D01*
X188675369Y-122515608D01*
X188675374Y-122515606D01*
X188824595Y-122423565D01*
X188948565Y-122299595D01*
X189040606Y-122150374D01*
X189040608Y-122150369D01*
X189095755Y-121983947D01*
X189095756Y-121983940D01*
X189106249Y-121881236D01*
X189106250Y-121881223D01*
X189106250Y-121431250D01*
X188193750Y-121431250D01*
X188193750Y-122581249D01*
X187693749Y-122581249D01*
X187693750Y-122581248D01*
X187693750Y-121431250D01*
X186781251Y-121431250D01*
X186781251Y-121881236D01*
X185981750Y-121881236D01*
X185981749Y-121484530D01*
X185990395Y-121455084D01*
X185996917Y-121425104D01*
X186000669Y-121420090D01*
X186001433Y-121417492D01*
X186018063Y-121396855D01*
X186569570Y-120845349D01*
X186630892Y-120811865D01*
X186700584Y-120816849D01*
X186756517Y-120858721D01*
X186780934Y-120924185D01*
X186781184Y-120931184D01*
X186781250Y-120931250D01*
X189106249Y-120931250D01*
X189106249Y-120481278D01*
X189106248Y-120481263D01*
X189095755Y-120378552D01*
X189040608Y-120212130D01*
X189040606Y-120212125D01*
X188948565Y-120062904D01*
X188867842Y-119982181D01*
X188834357Y-119920858D01*
X188839341Y-119851166D01*
X188881213Y-119795233D01*
X188946677Y-119770816D01*
X188955523Y-119770500D01*
X204539800Y-119770500D01*
X204606839Y-119790185D01*
X204619365Y-119799493D01*
X204792182Y-119925050D01*
X204800946Y-119929516D01*
X204851742Y-119977491D01*
X204868536Y-120045312D01*
X204845998Y-120111447D01*
X204800946Y-120150484D01*
X204792182Y-120154949D01*
X204620213Y-120279890D01*
X204469890Y-120430213D01*
X204344951Y-120602179D01*
X204248444Y-120791585D01*
X204182753Y-120993760D01*
X204160241Y-121135899D01*
X204149500Y-121203713D01*
X204149500Y-121416287D01*
X204155645Y-121455084D01*
X204179024Y-121602697D01*
X204182754Y-121626243D01*
X204239373Y-121800499D01*
X204248444Y-121828414D01*
X204344951Y-122017820D01*
X204469890Y-122189786D01*
X204620213Y-122340109D01*
X204792179Y-122465048D01*
X204792181Y-122465049D01*
X204792184Y-122465051D01*
X204981588Y-122561557D01*
X205183757Y-122627246D01*
X205393713Y-122660500D01*
X205393714Y-122660500D01*
X205606286Y-122660500D01*
X205606287Y-122660500D01*
X205816243Y-122627246D01*
X206018412Y-122561557D01*
X206207816Y-122465051D01*
X206264371Y-122423962D01*
X206379786Y-122340109D01*
X206379788Y-122340106D01*
X206379792Y-122340104D01*
X206530104Y-122189792D01*
X206530106Y-122189788D01*
X206530109Y-122189786D01*
X206655048Y-122017820D01*
X206655047Y-122017820D01*
X206655051Y-122017816D01*
X206751557Y-121828412D01*
X206817246Y-121626243D01*
X206850500Y-121416287D01*
X206850500Y-121203713D01*
X206817246Y-120993757D01*
X206751557Y-120791588D01*
X206655051Y-120602184D01*
X206655049Y-120602181D01*
X206655048Y-120602179D01*
X206530109Y-120430213D01*
X206379786Y-120279890D01*
X206207820Y-120154951D01*
X206207115Y-120154591D01*
X206199054Y-120150485D01*
X206148259Y-120102512D01*
X206131463Y-120034692D01*
X206153999Y-119968556D01*
X206199054Y-119929515D01*
X206207816Y-119925051D01*
X206316020Y-119846437D01*
X206379786Y-119800109D01*
X206379788Y-119800106D01*
X206379792Y-119800104D01*
X206530104Y-119649792D01*
X206530106Y-119649788D01*
X206530109Y-119649786D01*
X206655048Y-119477820D01*
X206655047Y-119477820D01*
X206655051Y-119477816D01*
X206751557Y-119288412D01*
X206817246Y-119086243D01*
X206850500Y-118876287D01*
X206850500Y-118663713D01*
X206817246Y-118453757D01*
X206751557Y-118251588D01*
X206655051Y-118062184D01*
X206655049Y-118062181D01*
X206655048Y-118062179D01*
X206530109Y-117890213D01*
X206379786Y-117739890D01*
X206207817Y-117614949D01*
X206198504Y-117610204D01*
X206147707Y-117562230D01*
X206130912Y-117494409D01*
X206153449Y-117428274D01*
X206198507Y-117389232D01*
X206207555Y-117384622D01*
X206261716Y-117345270D01*
X206261717Y-117345270D01*
X205629408Y-116712962D01*
X205692993Y-116695925D01*
X205807007Y-116630099D01*
X205900099Y-116537007D01*
X205965925Y-116422993D01*
X205982962Y-116359408D01*
X206615270Y-116991717D01*
X206615270Y-116991716D01*
X206654622Y-116937554D01*
X206751095Y-116748217D01*
X206816757Y-116546130D01*
X206816757Y-116546127D01*
X206850000Y-116336246D01*
X206850000Y-116123753D01*
X206816757Y-115913872D01*
X206816757Y-115913869D01*
X206751095Y-115711782D01*
X206654624Y-115522449D01*
X206615270Y-115468282D01*
X206615269Y-115468282D01*
X205982962Y-116100590D01*
X205965925Y-116037007D01*
X205900099Y-115922993D01*
X205807007Y-115829901D01*
X205692993Y-115764075D01*
X205629409Y-115747037D01*
X206299627Y-115076818D01*
X206360950Y-115043333D01*
X206387307Y-115040499D01*
X206397872Y-115040499D01*
X206457483Y-115034091D01*
X206592331Y-114983796D01*
X206707546Y-114897546D01*
X206793796Y-114782331D01*
X206844091Y-114647483D01*
X206850500Y-114587873D01*
X206850499Y-113805780D01*
X206870183Y-113738742D01*
X206886813Y-113718105D01*
X217118102Y-103486819D01*
X217179425Y-103453334D01*
X217205783Y-103450500D01*
X220270939Y-103450500D01*
X220337978Y-103470185D01*
X220383733Y-103522989D01*
X220387121Y-103531168D01*
X220406201Y-103582326D01*
X220406206Y-103582335D01*
X220492452Y-103697544D01*
X220492455Y-103697547D01*
X220607666Y-103783794D01*
X220607667Y-103783794D01*
X220607669Y-103783796D01*
X220658833Y-103802878D01*
X220714766Y-103844748D01*
X220739184Y-103910212D01*
X220739500Y-103919060D01*
X220739500Y-111374217D01*
X220719815Y-111441256D01*
X220703181Y-111461898D01*
X215990756Y-116174322D01*
X215929433Y-116207807D01*
X215859741Y-116202823D01*
X215803808Y-116160951D01*
X215785144Y-116124959D01*
X215751557Y-116021588D01*
X215655051Y-115832184D01*
X215655049Y-115832181D01*
X215655048Y-115832179D01*
X215530109Y-115660213D01*
X215416181Y-115546285D01*
X215382696Y-115484962D01*
X215387680Y-115415270D01*
X215429552Y-115359337D01*
X215460529Y-115342422D01*
X215592086Y-115293354D01*
X215592093Y-115293350D01*
X215707187Y-115207190D01*
X215707190Y-115207187D01*
X215793350Y-115092093D01*
X215793354Y-115092086D01*
X215843596Y-114957379D01*
X215843598Y-114957372D01*
X215849999Y-114897844D01*
X215850000Y-114897827D01*
X215850000Y-114250000D01*
X214933012Y-114250000D01*
X214965925Y-114192993D01*
X215000000Y-114065826D01*
X215000000Y-113934174D01*
X214965925Y-113807007D01*
X214933012Y-113750000D01*
X215850000Y-113750000D01*
X215850000Y-113102172D01*
X215849999Y-113102155D01*
X215843598Y-113042627D01*
X215843596Y-113042620D01*
X215793354Y-112907913D01*
X215793350Y-112907906D01*
X215707190Y-112792812D01*
X215707187Y-112792809D01*
X215592093Y-112706649D01*
X215592086Y-112706645D01*
X215457379Y-112656403D01*
X215457372Y-112656401D01*
X215397844Y-112650000D01*
X214750000Y-112650000D01*
X214750000Y-113566988D01*
X214692993Y-113534075D01*
X214565826Y-113500000D01*
X214434174Y-113500000D01*
X214307007Y-113534075D01*
X214250000Y-113566988D01*
X214250000Y-112650000D01*
X213602155Y-112650000D01*
X213542627Y-112656401D01*
X213542620Y-112656403D01*
X213407913Y-112706645D01*
X213407906Y-112706649D01*
X213292812Y-112792809D01*
X213292809Y-112792812D01*
X213206649Y-112907906D01*
X213206645Y-112907913D01*
X213156403Y-113042620D01*
X213156401Y-113042627D01*
X213150000Y-113102155D01*
X213150000Y-113750000D01*
X214066988Y-113750000D01*
X214034075Y-113807007D01*
X214000000Y-113934174D01*
X214000000Y-114065826D01*
X214034075Y-114192993D01*
X214066988Y-114250000D01*
X213150000Y-114250000D01*
X213150000Y-114897844D01*
X213156401Y-114957372D01*
X213156403Y-114957379D01*
X213206645Y-115092086D01*
X213206649Y-115092093D01*
X213292809Y-115207187D01*
X213292812Y-115207190D01*
X213407906Y-115293350D01*
X213407913Y-115293354D01*
X213539470Y-115342422D01*
X213595404Y-115384293D01*
X213619821Y-115449758D01*
X213604969Y-115518031D01*
X213583819Y-115546285D01*
X213469889Y-115660215D01*
X213344951Y-115832179D01*
X213248444Y-116021585D01*
X213182753Y-116223760D01*
X213181765Y-116229999D01*
X213149500Y-116433713D01*
X213149500Y-116646287D01*
X213182754Y-116856243D01*
X213226772Y-116991717D01*
X213248444Y-117058414D01*
X213344951Y-117247820D01*
X213469890Y-117419786D01*
X213620213Y-117570109D01*
X213792182Y-117695050D01*
X213800946Y-117699516D01*
X213851742Y-117747491D01*
X213868536Y-117815312D01*
X213845998Y-117881447D01*
X213800946Y-117920484D01*
X213792182Y-117924949D01*
X213620213Y-118049890D01*
X213469890Y-118200213D01*
X213344951Y-118372179D01*
X213248444Y-118561585D01*
X213182753Y-118763760D01*
X213164931Y-118876286D01*
X213149500Y-118973713D01*
X213149500Y-119186287D01*
X213182754Y-119396243D01*
X213235081Y-119557289D01*
X213248444Y-119598414D01*
X213344951Y-119787820D01*
X213469890Y-119959786D01*
X213620213Y-120110109D01*
X213792179Y-120235048D01*
X213792181Y-120235049D01*
X213792184Y-120235051D01*
X213981588Y-120331557D01*
X214183757Y-120397246D01*
X214393713Y-120430500D01*
X214393714Y-120430500D01*
X214606286Y-120430500D01*
X214606287Y-120430500D01*
X214816243Y-120397246D01*
X215018412Y-120331557D01*
X215207816Y-120235051D01*
X215324211Y-120150486D01*
X215379786Y-120110109D01*
X215379788Y-120110106D01*
X215379792Y-120110104D01*
X215530104Y-119959792D01*
X215530106Y-119959788D01*
X215530109Y-119959786D01*
X215655048Y-119787820D01*
X215655047Y-119787820D01*
X215655051Y-119787816D01*
X215751557Y-119598412D01*
X215817246Y-119396243D01*
X215850500Y-119186287D01*
X215850500Y-119186285D01*
X215851262Y-119181475D01*
X215852321Y-119181642D01*
X215875361Y-119121172D01*
X215886416Y-119108503D01*
X222377778Y-112617141D01*
X222377782Y-112617139D01*
X222517139Y-112477782D01*
X222626632Y-112313914D01*
X222702051Y-112131835D01*
X222740500Y-111938541D01*
X222740500Y-103884666D01*
X222760185Y-103817627D01*
X222790189Y-103785399D01*
X222792329Y-103783796D01*
X222792331Y-103783796D01*
X222907546Y-103697546D01*
X222993796Y-103582331D01*
X223044091Y-103447483D01*
X223050500Y-103387873D01*
X223050499Y-101592128D01*
X223044091Y-101532517D01*
X223031776Y-101499500D01*
X222993797Y-101397671D01*
X222993793Y-101397664D01*
X222907547Y-101282455D01*
X222907544Y-101282452D01*
X222792335Y-101196206D01*
X222792328Y-101196202D01*
X222660917Y-101147189D01*
X222604983Y-101105318D01*
X222580566Y-101039853D01*
X222595418Y-100971580D01*
X222616563Y-100943332D01*
X222730104Y-100829792D01*
X222730361Y-100829439D01*
X222855048Y-100657820D01*
X222855047Y-100657820D01*
X222855051Y-100657816D01*
X222951557Y-100468412D01*
X223017246Y-100266243D01*
X223050500Y-100056287D01*
X223050500Y-99843713D01*
X223017246Y-99633757D01*
X222951557Y-99431588D01*
X222855051Y-99242184D01*
X222855049Y-99242181D01*
X222855048Y-99242179D01*
X222730109Y-99070213D01*
X222579786Y-98919890D01*
X222407817Y-98794949D01*
X222398504Y-98790204D01*
X222347707Y-98742230D01*
X222330912Y-98674409D01*
X222353449Y-98608274D01*
X222398507Y-98569232D01*
X222407555Y-98564622D01*
X222461716Y-98525270D01*
X222461717Y-98525270D01*
X221829408Y-97892962D01*
X221892993Y-97875925D01*
X222007007Y-97810099D01*
X222100099Y-97717007D01*
X222165925Y-97602993D01*
X222182962Y-97539409D01*
X222815270Y-98171717D01*
X222815270Y-98171716D01*
X222854622Y-98117554D01*
X222951095Y-97928217D01*
X223016757Y-97726130D01*
X223016757Y-97726127D01*
X223050000Y-97516246D01*
X223050000Y-97303753D01*
X223016757Y-97093872D01*
X223016757Y-97093869D01*
X222951095Y-96891782D01*
X222854624Y-96702449D01*
X222815270Y-96648282D01*
X222815269Y-96648282D01*
X222182962Y-97280590D01*
X222165925Y-97217007D01*
X222100099Y-97102993D01*
X222007007Y-97009901D01*
X221892993Y-96944075D01*
X221829409Y-96927037D01*
X222461716Y-96294728D01*
X222407547Y-96255373D01*
X222407547Y-96255372D01*
X222398500Y-96250763D01*
X222347706Y-96202788D01*
X222330912Y-96134966D01*
X222353451Y-96068832D01*
X222398508Y-96029793D01*
X222407816Y-96025051D01*
X222487007Y-95967515D01*
X222579786Y-95900109D01*
X222579788Y-95900106D01*
X222579792Y-95900104D01*
X222730104Y-95749792D01*
X222730106Y-95749788D01*
X222730109Y-95749786D01*
X222855048Y-95577820D01*
X222855047Y-95577820D01*
X222855051Y-95577816D01*
X222951557Y-95388412D01*
X223017246Y-95186243D01*
X223050500Y-94976287D01*
X223050500Y-94763713D01*
X223017246Y-94553757D01*
X222951557Y-94351588D01*
X222855051Y-94162184D01*
X222855049Y-94162181D01*
X222855048Y-94162179D01*
X222730109Y-93990213D01*
X222579786Y-93839890D01*
X222407820Y-93714951D01*
X222407115Y-93714591D01*
X222399054Y-93710485D01*
X222348259Y-93662512D01*
X222331463Y-93594692D01*
X222353999Y-93528556D01*
X222399054Y-93489515D01*
X222407816Y-93485051D01*
X222429789Y-93469086D01*
X222579786Y-93360109D01*
X222579788Y-93360106D01*
X222579792Y-93360104D01*
X222730104Y-93209792D01*
X222730106Y-93209788D01*
X222730109Y-93209786D01*
X222855048Y-93037820D01*
X222855050Y-93037817D01*
X222855051Y-93037816D01*
X222951557Y-92848412D01*
X223017246Y-92646243D01*
X223050500Y-92436287D01*
X223050500Y-92223713D01*
X223017246Y-92013757D01*
X222951557Y-91811588D01*
X222855051Y-91622184D01*
X222855049Y-91622181D01*
X222855048Y-91622179D01*
X222730109Y-91450213D01*
X222579786Y-91299890D01*
X222407820Y-91174951D01*
X222407115Y-91174591D01*
X222399054Y-91170485D01*
X222348259Y-91122512D01*
X222331463Y-91054692D01*
X222353999Y-90988556D01*
X222399054Y-90949515D01*
X222407816Y-90945051D01*
X222429789Y-90929086D01*
X222579786Y-90820109D01*
X222579788Y-90820106D01*
X222579792Y-90820104D01*
X222730104Y-90669792D01*
X222730106Y-90669788D01*
X222730109Y-90669786D01*
X222855048Y-90497820D01*
X222855050Y-90497817D01*
X222855051Y-90497816D01*
X222951557Y-90308412D01*
X223017246Y-90106243D01*
X223050500Y-89896287D01*
X223050500Y-89683713D01*
X223017246Y-89473757D01*
X222951557Y-89271588D01*
X222855051Y-89082184D01*
X222855049Y-89082181D01*
X222855048Y-89082179D01*
X222730109Y-88910213D01*
X222579786Y-88759890D01*
X222407820Y-88634951D01*
X222407115Y-88634591D01*
X222399054Y-88630485D01*
X222348259Y-88582512D01*
X222331463Y-88514692D01*
X222353999Y-88448556D01*
X222399054Y-88409515D01*
X222407816Y-88405051D01*
X222429789Y-88389086D01*
X222579786Y-88280109D01*
X222579788Y-88280106D01*
X222579792Y-88280104D01*
X222730104Y-88129792D01*
X222730106Y-88129788D01*
X222730109Y-88129786D01*
X222855048Y-87957820D01*
X222855050Y-87957817D01*
X222855051Y-87957816D01*
X222951557Y-87768412D01*
X223017246Y-87566243D01*
X223050500Y-87356287D01*
X223050500Y-87143713D01*
X223017246Y-86933757D01*
X222951557Y-86731588D01*
X222855051Y-86542184D01*
X222855049Y-86542181D01*
X222855048Y-86542179D01*
X222730109Y-86370213D01*
X222579786Y-86219890D01*
X222407820Y-86094951D01*
X222407115Y-86094591D01*
X222399054Y-86090485D01*
X222348259Y-86042512D01*
X222331463Y-85974692D01*
X222353999Y-85908556D01*
X222399054Y-85869515D01*
X222407816Y-85865051D01*
X222507902Y-85792335D01*
X222579786Y-85740109D01*
X222579788Y-85740106D01*
X222579792Y-85740104D01*
X222730104Y-85589792D01*
X222730106Y-85589788D01*
X222730109Y-85589786D01*
X222855048Y-85417820D01*
X222855047Y-85417820D01*
X222855051Y-85417816D01*
X222951557Y-85228412D01*
X223017246Y-85026243D01*
X223050500Y-84816287D01*
X223050500Y-84603713D01*
X223017246Y-84393757D01*
X222951557Y-84191588D01*
X222855051Y-84002184D01*
X222855049Y-84002181D01*
X222855048Y-84002179D01*
X222730109Y-83830213D01*
X222579786Y-83679890D01*
X222407820Y-83554951D01*
X222218414Y-83458444D01*
X222218413Y-83458443D01*
X222218412Y-83458443D01*
X222016243Y-83392754D01*
X222016241Y-83392753D01*
X222016240Y-83392753D01*
X221832672Y-83363679D01*
X221806287Y-83359500D01*
X221593713Y-83359500D01*
X221567328Y-83363678D01*
X221498037Y-83354723D01*
X221460253Y-83328886D01*
X217548421Y-79417052D01*
X217548414Y-79417046D01*
X217474729Y-79367812D01*
X217474729Y-79367813D01*
X217425491Y-79334913D01*
X217288917Y-79278343D01*
X217288907Y-79278340D01*
X217143920Y-79249500D01*
X217143918Y-79249500D01*
X193506082Y-79249500D01*
X193506076Y-79249500D01*
X193477242Y-79255234D01*
X193477243Y-79255235D01*
X193361093Y-79278339D01*
X193361083Y-79278342D01*
X193281081Y-79311479D01*
X193281082Y-79311480D01*
X193224505Y-79334915D01*
X193142372Y-79389795D01*
X193101585Y-79417047D01*
X193101581Y-79417050D01*
X191575450Y-80943181D01*
X191514127Y-80976666D01*
X191487769Y-80979500D01*
X191301457Y-80979500D01*
X191108170Y-81017947D01*
X191108160Y-81017950D01*
X190926092Y-81093364D01*
X190926079Y-81093371D01*
X190762218Y-81202860D01*
X190762214Y-81202863D01*
X190622863Y-81342214D01*
X190622860Y-81342218D01*
X190513371Y-81506079D01*
X190513364Y-81506092D01*
X190437950Y-81688160D01*
X190437947Y-81688170D01*
X190399500Y-81881456D01*
X190399500Y-81881459D01*
X190399500Y-83078541D01*
X190399500Y-83078543D01*
X190399499Y-83078543D01*
X190437947Y-83271829D01*
X190437950Y-83271839D01*
X190513364Y-83453907D01*
X190513371Y-83453920D01*
X190622860Y-83617781D01*
X190622863Y-83617785D01*
X190762214Y-83757136D01*
X190762218Y-83757139D01*
X190926079Y-83866628D01*
X190926092Y-83866635D01*
X191108160Y-83942049D01*
X191108165Y-83942051D01*
X191108169Y-83942051D01*
X191108170Y-83942052D01*
X191301456Y-83980500D01*
X191301459Y-83980500D01*
X191498543Y-83980500D01*
X191628582Y-83954632D01*
X191691835Y-83942051D01*
X191873914Y-83866632D01*
X192037782Y-83757139D01*
X192177139Y-83617782D01*
X192286632Y-83453914D01*
X192362051Y-83271835D01*
X192374632Y-83208582D01*
X192400500Y-83078543D01*
X192400500Y-82292229D01*
X192420185Y-82225190D01*
X192436819Y-82204548D01*
X192727819Y-81913548D01*
X192789142Y-81880063D01*
X192858834Y-81885047D01*
X192914767Y-81926919D01*
X192939184Y-81992383D01*
X192939500Y-82001229D01*
X192939500Y-83078541D01*
X192939500Y-83078543D01*
X192939499Y-83078543D01*
X192977947Y-83271829D01*
X192977950Y-83271839D01*
X193053364Y-83453907D01*
X193053371Y-83453920D01*
X193162860Y-83617781D01*
X193162863Y-83617785D01*
X193302214Y-83757136D01*
X193302218Y-83757139D01*
X193466079Y-83866628D01*
X193466092Y-83866635D01*
X193648160Y-83942049D01*
X193648165Y-83942051D01*
X193648169Y-83942051D01*
X193648170Y-83942052D01*
X193841456Y-83980500D01*
X193841459Y-83980500D01*
X194038543Y-83980500D01*
X194168582Y-83954632D01*
X194231835Y-83942051D01*
X194413914Y-83866632D01*
X194577782Y-83757139D01*
X194717139Y-83617782D01*
X194826632Y-83453914D01*
X194902051Y-83271835D01*
X194914632Y-83208582D01*
X194940500Y-83078543D01*
X194940500Y-81881456D01*
X194902052Y-81688170D01*
X194902051Y-81688169D01*
X194902051Y-81688165D01*
X194884553Y-81645920D01*
X194826635Y-81506092D01*
X194826628Y-81506079D01*
X194717139Y-81342218D01*
X194717136Y-81342214D01*
X194577785Y-81202863D01*
X194577781Y-81202860D01*
X194413920Y-81093371D01*
X194413907Y-81093364D01*
X194231839Y-81017950D01*
X194231827Y-81017947D01*
X194122082Y-80996117D01*
X194060171Y-80963732D01*
X194025596Y-80903016D01*
X194029336Y-80833247D01*
X194070203Y-80776575D01*
X194135221Y-80750994D01*
X194146273Y-80750500D01*
X196273727Y-80750500D01*
X196340766Y-80770185D01*
X196386521Y-80822989D01*
X196396465Y-80892147D01*
X196367440Y-80955703D01*
X196308662Y-80993477D01*
X196297918Y-80996117D01*
X196188172Y-81017947D01*
X196188160Y-81017950D01*
X196006092Y-81093364D01*
X196006079Y-81093371D01*
X195842218Y-81202860D01*
X195842214Y-81202863D01*
X195702863Y-81342214D01*
X195702860Y-81342218D01*
X195593371Y-81506079D01*
X195593364Y-81506092D01*
X195517950Y-81688160D01*
X195517947Y-81688170D01*
X195479500Y-81881456D01*
X195479500Y-81881459D01*
X195479500Y-83078541D01*
X195479500Y-83078543D01*
X195479499Y-83078543D01*
X195517947Y-83271829D01*
X195517950Y-83271839D01*
X195593364Y-83453907D01*
X195593371Y-83453920D01*
X195702860Y-83617781D01*
X195702863Y-83617785D01*
X195842214Y-83757136D01*
X195842218Y-83757139D01*
X196006079Y-83866628D01*
X196006092Y-83866635D01*
X196188160Y-83942049D01*
X196188165Y-83942051D01*
X196188169Y-83942051D01*
X196188170Y-83942052D01*
X196381456Y-83980500D01*
X196381459Y-83980500D01*
X196578543Y-83980500D01*
X196708582Y-83954632D01*
X196771835Y-83942051D01*
X196953914Y-83866632D01*
X197117782Y-83757139D01*
X197257139Y-83617782D01*
X197366632Y-83453914D01*
X197442051Y-83271835D01*
X197454632Y-83208582D01*
X197480500Y-83078543D01*
X197480500Y-81881456D01*
X197442052Y-81688170D01*
X197442051Y-81688169D01*
X197442051Y-81688165D01*
X197424553Y-81645920D01*
X197366635Y-81506092D01*
X197366628Y-81506079D01*
X197257139Y-81342218D01*
X197257136Y-81342214D01*
X197117785Y-81202863D01*
X197117781Y-81202860D01*
X196953920Y-81093371D01*
X196953907Y-81093364D01*
X196771839Y-81017950D01*
X196771827Y-81017947D01*
X196662082Y-80996117D01*
X196600171Y-80963732D01*
X196565596Y-80903016D01*
X196569336Y-80833247D01*
X196610203Y-80776575D01*
X196675221Y-80750994D01*
X196686273Y-80750500D01*
X198813727Y-80750500D01*
X198880766Y-80770185D01*
X198926521Y-80822989D01*
X198936465Y-80892147D01*
X198907440Y-80955703D01*
X198848662Y-80993477D01*
X198837918Y-80996117D01*
X198728172Y-81017947D01*
X198728160Y-81017950D01*
X198546092Y-81093364D01*
X198546079Y-81093371D01*
X198382218Y-81202860D01*
X198382214Y-81202863D01*
X198242863Y-81342214D01*
X198242860Y-81342218D01*
X198133371Y-81506079D01*
X198133364Y-81506092D01*
X198057950Y-81688160D01*
X198057947Y-81688170D01*
X198019500Y-81881456D01*
X198019500Y-81881459D01*
X198019500Y-83078541D01*
X198019500Y-83078543D01*
X198019499Y-83078543D01*
X198057947Y-83271829D01*
X198057950Y-83271839D01*
X198133364Y-83453907D01*
X198133371Y-83453920D01*
X198242860Y-83617781D01*
X198242863Y-83617785D01*
X198382214Y-83757136D01*
X198382218Y-83757139D01*
X198546079Y-83866628D01*
X198546092Y-83866635D01*
X198728160Y-83942049D01*
X198728165Y-83942051D01*
X198728169Y-83942051D01*
X198728170Y-83942052D01*
X198921456Y-83980500D01*
X198921459Y-83980500D01*
X199118543Y-83980500D01*
X199248582Y-83954632D01*
X199311835Y-83942051D01*
X199493914Y-83866632D01*
X199657782Y-83757139D01*
X199797139Y-83617782D01*
X199906632Y-83453914D01*
X199982051Y-83271835D01*
X199994632Y-83208582D01*
X200020500Y-83078543D01*
X200020500Y-81881456D01*
X199982052Y-81688170D01*
X199982051Y-81688169D01*
X199982051Y-81688165D01*
X199964553Y-81645920D01*
X199906635Y-81506092D01*
X199906628Y-81506079D01*
X199797139Y-81342218D01*
X199797136Y-81342214D01*
X199657785Y-81202863D01*
X199657781Y-81202860D01*
X199493920Y-81093371D01*
X199493907Y-81093364D01*
X199311839Y-81017950D01*
X199311827Y-81017947D01*
X199202082Y-80996117D01*
X199140171Y-80963732D01*
X199105596Y-80903016D01*
X199109336Y-80833247D01*
X199150203Y-80776575D01*
X199215221Y-80750994D01*
X199226273Y-80750500D01*
X201353727Y-80750500D01*
X201420766Y-80770185D01*
X201466521Y-80822989D01*
X201476465Y-80892147D01*
X201447440Y-80955703D01*
X201388662Y-80993477D01*
X201377918Y-80996117D01*
X201268172Y-81017947D01*
X201268160Y-81017950D01*
X201086092Y-81093364D01*
X201086079Y-81093371D01*
X200922218Y-81202860D01*
X200922214Y-81202863D01*
X200782863Y-81342214D01*
X200782860Y-81342218D01*
X200673371Y-81506079D01*
X200673364Y-81506092D01*
X200597950Y-81688160D01*
X200597947Y-81688170D01*
X200559500Y-81881456D01*
X200559500Y-81881459D01*
X200559500Y-83078541D01*
X200559500Y-83078543D01*
X200559499Y-83078543D01*
X200597947Y-83271829D01*
X200597950Y-83271839D01*
X200673364Y-83453907D01*
X200673371Y-83453920D01*
X200782860Y-83617781D01*
X200782863Y-83617785D01*
X200922214Y-83757136D01*
X200922218Y-83757139D01*
X201086079Y-83866628D01*
X201086092Y-83866635D01*
X201268160Y-83942049D01*
X201268165Y-83942051D01*
X201268169Y-83942051D01*
X201268170Y-83942052D01*
X201461456Y-83980500D01*
X201461459Y-83980500D01*
X201658543Y-83980500D01*
X201788582Y-83954632D01*
X201851835Y-83942051D01*
X202033914Y-83866632D01*
X202197782Y-83757139D01*
X202337139Y-83617782D01*
X202446632Y-83453914D01*
X202522051Y-83271835D01*
X202534632Y-83208582D01*
X202560500Y-83078543D01*
X202560500Y-81881456D01*
X202522052Y-81688170D01*
X202522051Y-81688169D01*
X202522051Y-81688165D01*
X202504553Y-81645920D01*
X202446635Y-81506092D01*
X202446628Y-81506079D01*
X202337139Y-81342218D01*
X202337136Y-81342214D01*
X202197785Y-81202863D01*
X202197781Y-81202860D01*
X202033920Y-81093371D01*
X202033907Y-81093364D01*
X201851839Y-81017950D01*
X201851827Y-81017947D01*
X201742082Y-80996117D01*
X201680171Y-80963732D01*
X201645596Y-80903016D01*
X201649336Y-80833247D01*
X201690203Y-80776575D01*
X201755221Y-80750994D01*
X201766273Y-80750500D01*
X203893727Y-80750500D01*
X203960766Y-80770185D01*
X204006521Y-80822989D01*
X204016465Y-80892147D01*
X203987440Y-80955703D01*
X203928662Y-80993477D01*
X203917918Y-80996117D01*
X203808172Y-81017947D01*
X203808160Y-81017950D01*
X203626092Y-81093364D01*
X203626079Y-81093371D01*
X203462218Y-81202860D01*
X203462214Y-81202863D01*
X203322863Y-81342214D01*
X203322860Y-81342218D01*
X203213371Y-81506079D01*
X203213364Y-81506092D01*
X203137950Y-81688160D01*
X203137947Y-81688170D01*
X203099500Y-81881456D01*
X203099500Y-81881459D01*
X203099500Y-83078541D01*
X203099500Y-83078543D01*
X203099499Y-83078543D01*
X203137947Y-83271829D01*
X203137950Y-83271839D01*
X203213364Y-83453907D01*
X203213371Y-83453920D01*
X203322860Y-83617781D01*
X203322863Y-83617785D01*
X203462214Y-83757136D01*
X203462218Y-83757139D01*
X203626079Y-83866628D01*
X203626092Y-83866635D01*
X203808160Y-83942049D01*
X203808165Y-83942051D01*
X203808169Y-83942051D01*
X203808170Y-83942052D01*
X204001456Y-83980500D01*
X204001459Y-83980500D01*
X204198543Y-83980500D01*
X204328582Y-83954632D01*
X204391835Y-83942051D01*
X204573914Y-83866632D01*
X204737782Y-83757139D01*
X204877139Y-83617782D01*
X204986632Y-83453914D01*
X205062051Y-83271835D01*
X205074632Y-83208582D01*
X205100500Y-83078543D01*
X205100500Y-81881456D01*
X205062052Y-81688170D01*
X205062051Y-81688169D01*
X205062051Y-81688165D01*
X205044553Y-81645920D01*
X204986635Y-81506092D01*
X204986628Y-81506079D01*
X204877139Y-81342218D01*
X204877136Y-81342214D01*
X204737785Y-81202863D01*
X204737781Y-81202860D01*
X204573920Y-81093371D01*
X204573907Y-81093364D01*
X204391839Y-81017950D01*
X204391827Y-81017947D01*
X204282082Y-80996117D01*
X204220171Y-80963732D01*
X204185596Y-80903016D01*
X204189336Y-80833247D01*
X204230203Y-80776575D01*
X204295221Y-80750994D01*
X204306273Y-80750500D01*
X216707770Y-80750500D01*
X216774809Y-80770185D01*
X216795451Y-80786819D01*
X220340763Y-84332130D01*
X220374248Y-84393453D01*
X220375555Y-84439209D01*
X220349500Y-84603713D01*
X220349500Y-84816286D01*
X220381169Y-85016239D01*
X220382754Y-85026243D01*
X220445194Y-85218414D01*
X220448444Y-85228414D01*
X220544951Y-85417820D01*
X220669890Y-85589786D01*
X220820213Y-85740109D01*
X220992182Y-85865050D01*
X221000946Y-85869516D01*
X221051742Y-85917491D01*
X221068536Y-85985312D01*
X221045998Y-86051447D01*
X221000946Y-86090484D01*
X220992182Y-86094949D01*
X220820213Y-86219890D01*
X220669894Y-86370209D01*
X220669890Y-86370214D01*
X220569504Y-86508385D01*
X220514174Y-86551051D01*
X220469186Y-86559500D01*
X206625929Y-86559500D01*
X206500261Y-86584497D01*
X206500255Y-86584499D01*
X206381870Y-86633535D01*
X206275331Y-86704722D01*
X206275324Y-86704728D01*
X192121375Y-100858677D01*
X192060052Y-100892162D01*
X191990360Y-100887178D01*
X191964803Y-100874098D01*
X191873920Y-100813371D01*
X191873907Y-100813364D01*
X191691839Y-100737950D01*
X191691829Y-100737947D01*
X191498543Y-100699500D01*
X191498541Y-100699500D01*
X191301459Y-100699500D01*
X191301456Y-100699500D01*
X191214649Y-100716767D01*
X191145058Y-100710540D01*
X191102777Y-100682831D01*
X173498490Y-83078543D01*
X175159499Y-83078543D01*
X175197947Y-83271829D01*
X175197950Y-83271839D01*
X175273364Y-83453907D01*
X175273371Y-83453920D01*
X175382860Y-83617781D01*
X175382863Y-83617785D01*
X175522214Y-83757136D01*
X175522218Y-83757139D01*
X175686079Y-83866628D01*
X175686092Y-83866635D01*
X175868160Y-83942049D01*
X175868165Y-83942051D01*
X175868169Y-83942051D01*
X175868170Y-83942052D01*
X176061456Y-83980500D01*
X176061459Y-83980500D01*
X176258543Y-83980500D01*
X176388582Y-83954632D01*
X176451835Y-83942051D01*
X176633914Y-83866632D01*
X176797782Y-83757139D01*
X176937139Y-83617782D01*
X177046632Y-83453914D01*
X177122051Y-83271835D01*
X177134632Y-83208582D01*
X177160500Y-83078543D01*
X177699499Y-83078543D01*
X177737947Y-83271829D01*
X177737950Y-83271839D01*
X177813364Y-83453907D01*
X177813371Y-83453920D01*
X177922860Y-83617781D01*
X177922863Y-83617785D01*
X178062214Y-83757136D01*
X178062218Y-83757139D01*
X178226079Y-83866628D01*
X178226092Y-83866635D01*
X178408160Y-83942049D01*
X178408165Y-83942051D01*
X178408169Y-83942051D01*
X178408170Y-83942052D01*
X178601456Y-83980500D01*
X178601459Y-83980500D01*
X178798543Y-83980500D01*
X178928582Y-83954632D01*
X178991835Y-83942051D01*
X179173914Y-83866632D01*
X179337782Y-83757139D01*
X179477139Y-83617782D01*
X179586632Y-83453914D01*
X179662051Y-83271835D01*
X179674632Y-83208582D01*
X179700500Y-83078543D01*
X180239499Y-83078543D01*
X180277947Y-83271829D01*
X180277950Y-83271839D01*
X180353364Y-83453907D01*
X180353371Y-83453920D01*
X180462860Y-83617781D01*
X180462863Y-83617785D01*
X180602214Y-83757136D01*
X180602218Y-83757139D01*
X180766079Y-83866628D01*
X180766092Y-83866635D01*
X180948160Y-83942049D01*
X180948165Y-83942051D01*
X180948169Y-83942051D01*
X180948170Y-83942052D01*
X181141456Y-83980500D01*
X181141459Y-83980500D01*
X181338543Y-83980500D01*
X181468582Y-83954632D01*
X181531835Y-83942051D01*
X181713914Y-83866632D01*
X181877782Y-83757139D01*
X182017139Y-83617782D01*
X182126632Y-83453914D01*
X182202051Y-83271835D01*
X182214632Y-83208582D01*
X182240500Y-83078543D01*
X182779499Y-83078543D01*
X182817947Y-83271829D01*
X182817950Y-83271839D01*
X182893364Y-83453907D01*
X182893371Y-83453920D01*
X183002860Y-83617781D01*
X183002863Y-83617785D01*
X183142214Y-83757136D01*
X183142218Y-83757139D01*
X183306079Y-83866628D01*
X183306092Y-83866635D01*
X183488160Y-83942049D01*
X183488165Y-83942051D01*
X183488169Y-83942051D01*
X183488170Y-83942052D01*
X183681456Y-83980500D01*
X183681459Y-83980500D01*
X183878543Y-83980500D01*
X184008582Y-83954632D01*
X184071835Y-83942051D01*
X184253914Y-83866632D01*
X184417782Y-83757139D01*
X184557139Y-83617782D01*
X184666632Y-83453914D01*
X184742051Y-83271835D01*
X184754632Y-83208582D01*
X184780500Y-83078543D01*
X185319499Y-83078543D01*
X185357947Y-83271829D01*
X185357950Y-83271839D01*
X185433364Y-83453907D01*
X185433371Y-83453920D01*
X185542860Y-83617781D01*
X185542863Y-83617785D01*
X185682214Y-83757136D01*
X185682218Y-83757139D01*
X185846079Y-83866628D01*
X185846092Y-83866635D01*
X186028160Y-83942049D01*
X186028165Y-83942051D01*
X186028169Y-83942051D01*
X186028170Y-83942052D01*
X186221456Y-83980500D01*
X186221459Y-83980500D01*
X186418543Y-83980500D01*
X186548582Y-83954632D01*
X186611835Y-83942051D01*
X186793914Y-83866632D01*
X186957782Y-83757139D01*
X187097139Y-83617782D01*
X187206632Y-83453914D01*
X187282051Y-83271835D01*
X187294632Y-83208582D01*
X187320500Y-83078543D01*
X187859499Y-83078543D01*
X187897947Y-83271829D01*
X187897950Y-83271839D01*
X187973364Y-83453907D01*
X187973371Y-83453920D01*
X188082860Y-83617781D01*
X188082863Y-83617785D01*
X188222214Y-83757136D01*
X188222218Y-83757139D01*
X188386079Y-83866628D01*
X188386092Y-83866635D01*
X188568160Y-83942049D01*
X188568165Y-83942051D01*
X188568169Y-83942051D01*
X188568170Y-83942052D01*
X188761456Y-83980500D01*
X188761459Y-83980500D01*
X188958543Y-83980500D01*
X189088582Y-83954632D01*
X189151835Y-83942051D01*
X189333914Y-83866632D01*
X189497782Y-83757139D01*
X189637139Y-83617782D01*
X189746632Y-83453914D01*
X189822051Y-83271835D01*
X189834632Y-83208582D01*
X189860500Y-83078543D01*
X189860500Y-81881456D01*
X189822052Y-81688170D01*
X189822051Y-81688169D01*
X189822051Y-81688165D01*
X189804553Y-81645920D01*
X189746635Y-81506092D01*
X189746628Y-81506079D01*
X189637139Y-81342218D01*
X189637136Y-81342214D01*
X189497785Y-81202863D01*
X189497781Y-81202860D01*
X189333920Y-81093371D01*
X189333907Y-81093364D01*
X189151839Y-81017950D01*
X189151829Y-81017947D01*
X188958543Y-80979500D01*
X188958541Y-80979500D01*
X188761459Y-80979500D01*
X188761457Y-80979500D01*
X188568170Y-81017947D01*
X188568160Y-81017950D01*
X188386092Y-81093364D01*
X188386079Y-81093371D01*
X188222218Y-81202860D01*
X188222214Y-81202863D01*
X188082863Y-81342214D01*
X188082860Y-81342218D01*
X187973371Y-81506079D01*
X187973364Y-81506092D01*
X187897950Y-81688160D01*
X187897947Y-81688170D01*
X187859500Y-81881456D01*
X187859500Y-81881459D01*
X187859500Y-83078541D01*
X187859500Y-83078543D01*
X187859499Y-83078543D01*
X187320500Y-83078543D01*
X187320500Y-81881456D01*
X187282052Y-81688170D01*
X187282051Y-81688169D01*
X187282051Y-81688165D01*
X187264553Y-81645920D01*
X187206635Y-81506092D01*
X187206628Y-81506079D01*
X187097139Y-81342218D01*
X187097136Y-81342214D01*
X186957785Y-81202863D01*
X186957781Y-81202860D01*
X186793920Y-81093371D01*
X186793907Y-81093364D01*
X186611839Y-81017950D01*
X186611829Y-81017947D01*
X186418543Y-80979500D01*
X186418541Y-80979500D01*
X186221459Y-80979500D01*
X186221457Y-80979500D01*
X186028170Y-81017947D01*
X186028160Y-81017950D01*
X185846092Y-81093364D01*
X185846079Y-81093371D01*
X185682218Y-81202860D01*
X185682214Y-81202863D01*
X185542863Y-81342214D01*
X185542860Y-81342218D01*
X185433371Y-81506079D01*
X185433364Y-81506092D01*
X185357950Y-81688160D01*
X185357947Y-81688170D01*
X185319500Y-81881456D01*
X185319500Y-81881459D01*
X185319500Y-83078541D01*
X185319500Y-83078543D01*
X185319499Y-83078543D01*
X184780500Y-83078543D01*
X184780500Y-81881456D01*
X184742052Y-81688170D01*
X184742051Y-81688169D01*
X184742051Y-81688165D01*
X184724553Y-81645920D01*
X184666635Y-81506092D01*
X184666628Y-81506079D01*
X184557139Y-81342218D01*
X184557136Y-81342214D01*
X184417785Y-81202863D01*
X184417781Y-81202860D01*
X184253920Y-81093371D01*
X184253907Y-81093364D01*
X184071839Y-81017950D01*
X184071829Y-81017947D01*
X183878543Y-80979500D01*
X183878541Y-80979500D01*
X183681459Y-80979500D01*
X183681457Y-80979500D01*
X183488170Y-81017947D01*
X183488160Y-81017950D01*
X183306092Y-81093364D01*
X183306079Y-81093371D01*
X183142218Y-81202860D01*
X183142214Y-81202863D01*
X183002863Y-81342214D01*
X183002860Y-81342218D01*
X182893371Y-81506079D01*
X182893364Y-81506092D01*
X182817950Y-81688160D01*
X182817947Y-81688170D01*
X182779500Y-81881456D01*
X182779500Y-81881459D01*
X182779500Y-83078541D01*
X182779500Y-83078543D01*
X182779499Y-83078543D01*
X182240500Y-83078543D01*
X182240500Y-81881456D01*
X182202052Y-81688170D01*
X182202051Y-81688169D01*
X182202051Y-81688165D01*
X182184553Y-81645920D01*
X182126635Y-81506092D01*
X182126628Y-81506079D01*
X182017139Y-81342218D01*
X182017136Y-81342214D01*
X181877785Y-81202863D01*
X181877781Y-81202860D01*
X181713920Y-81093371D01*
X181713907Y-81093364D01*
X181531839Y-81017950D01*
X181531829Y-81017947D01*
X181338543Y-80979500D01*
X181338541Y-80979500D01*
X181141459Y-80979500D01*
X181141457Y-80979500D01*
X180948170Y-81017947D01*
X180948160Y-81017950D01*
X180766092Y-81093364D01*
X180766079Y-81093371D01*
X180602218Y-81202860D01*
X180602214Y-81202863D01*
X180462863Y-81342214D01*
X180462860Y-81342218D01*
X180353371Y-81506079D01*
X180353364Y-81506092D01*
X180277950Y-81688160D01*
X180277947Y-81688170D01*
X180239500Y-81881456D01*
X180239500Y-81881459D01*
X180239500Y-83078541D01*
X180239500Y-83078543D01*
X180239499Y-83078543D01*
X179700500Y-83078543D01*
X179700500Y-81881456D01*
X179662052Y-81688170D01*
X179662051Y-81688169D01*
X179662051Y-81688165D01*
X179644553Y-81645920D01*
X179586635Y-81506092D01*
X179586628Y-81506079D01*
X179477139Y-81342218D01*
X179477136Y-81342214D01*
X179337785Y-81202863D01*
X179337781Y-81202860D01*
X179173920Y-81093371D01*
X179173907Y-81093364D01*
X178991839Y-81017950D01*
X178991829Y-81017947D01*
X178798543Y-80979500D01*
X178798541Y-80979500D01*
X178601459Y-80979500D01*
X178601457Y-80979500D01*
X178408170Y-81017947D01*
X178408160Y-81017950D01*
X178226092Y-81093364D01*
X178226079Y-81093371D01*
X178062218Y-81202860D01*
X178062214Y-81202863D01*
X177922863Y-81342214D01*
X177922860Y-81342218D01*
X177813371Y-81506079D01*
X177813364Y-81506092D01*
X177737950Y-81688160D01*
X177737947Y-81688170D01*
X177699500Y-81881456D01*
X177699500Y-81881459D01*
X177699500Y-83078541D01*
X177699500Y-83078543D01*
X177699499Y-83078543D01*
X177160500Y-83078543D01*
X177160500Y-81881456D01*
X177122052Y-81688170D01*
X177122051Y-81688169D01*
X177122051Y-81688165D01*
X177104553Y-81645920D01*
X177046635Y-81506092D01*
X177046628Y-81506079D01*
X176937139Y-81342218D01*
X176937136Y-81342214D01*
X176797785Y-81202863D01*
X176797781Y-81202860D01*
X176633920Y-81093371D01*
X176633907Y-81093364D01*
X176451839Y-81017950D01*
X176451829Y-81017947D01*
X176258543Y-80979500D01*
X176258541Y-80979500D01*
X176061459Y-80979500D01*
X176061457Y-80979500D01*
X175868170Y-81017947D01*
X175868160Y-81017950D01*
X175686092Y-81093364D01*
X175686079Y-81093371D01*
X175522218Y-81202860D01*
X175522214Y-81202863D01*
X175382863Y-81342214D01*
X175382860Y-81342218D01*
X175273371Y-81506079D01*
X175273364Y-81506092D01*
X175197950Y-81688160D01*
X175197947Y-81688170D01*
X175159500Y-81881456D01*
X175159500Y-81881459D01*
X175159500Y-83078541D01*
X175159500Y-83078543D01*
X175159499Y-83078543D01*
X173498490Y-83078543D01*
X172382995Y-81963048D01*
X171514673Y-81094726D01*
X171514669Y-81094723D01*
X171408127Y-81023535D01*
X171394641Y-81017949D01*
X171289744Y-80974499D01*
X171289738Y-80974497D01*
X171164071Y-80949500D01*
X171164069Y-80949500D01*
X159800808Y-80949500D01*
X159733769Y-80929815D01*
X159713127Y-80913181D01*
X158850657Y-80050711D01*
X158817172Y-79989388D01*
X158817689Y-79941245D01*
X158816484Y-79941055D01*
X158850500Y-79726286D01*
X158850500Y-79513713D01*
X158835190Y-79417050D01*
X158817246Y-79303757D01*
X158751557Y-79101588D01*
X158655051Y-78912184D01*
X158655049Y-78912181D01*
X158655048Y-78912179D01*
X158530109Y-78740213D01*
X158379786Y-78589890D01*
X158207817Y-78464949D01*
X158198504Y-78460204D01*
X158147707Y-78412230D01*
X158130912Y-78344409D01*
X158153449Y-78278274D01*
X158198507Y-78239232D01*
X158207555Y-78234622D01*
X158261716Y-78195270D01*
X158261717Y-78195270D01*
X157629408Y-77562962D01*
X157692993Y-77545925D01*
X157807007Y-77480099D01*
X157900099Y-77387007D01*
X157965925Y-77272993D01*
X157982962Y-77209408D01*
X158615270Y-77841717D01*
X158615270Y-77841716D01*
X158654622Y-77787554D01*
X158751095Y-77598217D01*
X158816757Y-77396130D01*
X158816757Y-77396127D01*
X158850000Y-77186246D01*
X158850000Y-76973753D01*
X158816757Y-76763872D01*
X158816757Y-76763869D01*
X158751095Y-76561782D01*
X158654624Y-76372449D01*
X158615270Y-76318282D01*
X158615269Y-76318282D01*
X157982962Y-76950590D01*
X157965925Y-76887007D01*
X157900099Y-76772993D01*
X157807007Y-76679901D01*
X157692993Y-76614075D01*
X157629409Y-76597037D01*
X158261716Y-75964728D01*
X158207547Y-75925373D01*
X158207547Y-75925372D01*
X158198500Y-75920763D01*
X158147706Y-75872788D01*
X158130912Y-75804966D01*
X158153451Y-75738832D01*
X158198508Y-75699793D01*
X158207816Y-75695051D01*
X158287007Y-75637515D01*
X158379786Y-75570109D01*
X158379788Y-75570106D01*
X158379792Y-75570104D01*
X158530104Y-75419792D01*
X158530106Y-75419788D01*
X158530109Y-75419786D01*
X158655048Y-75247820D01*
X158655047Y-75247820D01*
X158655051Y-75247816D01*
X158751557Y-75058412D01*
X158817246Y-74856243D01*
X158850500Y-74646287D01*
X158850500Y-74433713D01*
X158817246Y-74223757D01*
X158751557Y-74021588D01*
X158655051Y-73832184D01*
X158655049Y-73832181D01*
X158655048Y-73832179D01*
X158530109Y-73660213D01*
X158416569Y-73546673D01*
X158383084Y-73485350D01*
X158388068Y-73415658D01*
X158429940Y-73359725D01*
X158460915Y-73342810D01*
X158592331Y-73293796D01*
X158707546Y-73207546D01*
X158786457Y-73102135D01*
X172149500Y-73102135D01*
X172149500Y-74897870D01*
X172149501Y-74897876D01*
X172155908Y-74957483D01*
X172206202Y-75092328D01*
X172206206Y-75092335D01*
X172292452Y-75207544D01*
X172292455Y-75207547D01*
X172407664Y-75293793D01*
X172407671Y-75293797D01*
X172542517Y-75344091D01*
X172542516Y-75344091D01*
X172549444Y-75344835D01*
X172602127Y-75350500D01*
X174397872Y-75350499D01*
X174457483Y-75344091D01*
X174592331Y-75293796D01*
X174707546Y-75207546D01*
X174793796Y-75092331D01*
X174844091Y-74957483D01*
X174850500Y-74897873D01*
X174850499Y-74873979D01*
X174853330Y-74860963D01*
X174863940Y-74841525D01*
X174870179Y-74820275D01*
X174886803Y-74799643D01*
X174886808Y-74799636D01*
X174886811Y-74799634D01*
X174886818Y-74799626D01*
X175557037Y-74129408D01*
X175574075Y-74192993D01*
X175639901Y-74307007D01*
X175732993Y-74400099D01*
X175847007Y-74465925D01*
X175910590Y-74482962D01*
X175278282Y-75115269D01*
X175278282Y-75115270D01*
X175332449Y-75154624D01*
X175521782Y-75251095D01*
X175723870Y-75316757D01*
X175933754Y-75350000D01*
X176146246Y-75350000D01*
X176356127Y-75316757D01*
X176356130Y-75316757D01*
X176558217Y-75251095D01*
X176747554Y-75154622D01*
X176801716Y-75115270D01*
X176801717Y-75115270D01*
X176169408Y-74482962D01*
X176232993Y-74465925D01*
X176347007Y-74400099D01*
X176440099Y-74307007D01*
X176505925Y-74192993D01*
X176522962Y-74129408D01*
X177155270Y-74761717D01*
X177155270Y-74761716D01*
X177194622Y-74707555D01*
X177199232Y-74698507D01*
X177247205Y-74647709D01*
X177315025Y-74630912D01*
X177381161Y-74653447D01*
X177420204Y-74698504D01*
X177424949Y-74707817D01*
X177549890Y-74879786D01*
X177700213Y-75030109D01*
X177872179Y-75155048D01*
X177872181Y-75155049D01*
X177872184Y-75155051D01*
X178061588Y-75251557D01*
X178263757Y-75317246D01*
X178473713Y-75350500D01*
X178473714Y-75350500D01*
X178686286Y-75350500D01*
X178686287Y-75350500D01*
X178896243Y-75317246D01*
X179098412Y-75251557D01*
X179287816Y-75155051D01*
X179374138Y-75092335D01*
X179459786Y-75030109D01*
X179459788Y-75030106D01*
X179459792Y-75030104D01*
X179610104Y-74879792D01*
X179610106Y-74879788D01*
X179610109Y-74879786D01*
X179735048Y-74707820D01*
X179735050Y-74707817D01*
X179735051Y-74707816D01*
X179831557Y-74518412D01*
X179897246Y-74316243D01*
X179930500Y-74106287D01*
X179930500Y-73893713D01*
X179897246Y-73683757D01*
X179831557Y-73481588D01*
X179735051Y-73292184D01*
X179735049Y-73292181D01*
X179735048Y-73292179D01*
X179610109Y-73120213D01*
X179459786Y-72969890D01*
X179287820Y-72844951D01*
X179098414Y-72748444D01*
X179098413Y-72748443D01*
X179098412Y-72748443D01*
X178896243Y-72682754D01*
X178896241Y-72682753D01*
X178896240Y-72682753D01*
X178734957Y-72657208D01*
X178686287Y-72649500D01*
X178473713Y-72649500D01*
X178425042Y-72657208D01*
X178263760Y-72682753D01*
X178061585Y-72748444D01*
X177872179Y-72844951D01*
X177700213Y-72969890D01*
X177549890Y-73120213D01*
X177424949Y-73292182D01*
X177420202Y-73301499D01*
X177372227Y-73352293D01*
X177304405Y-73369087D01*
X177238271Y-73346548D01*
X177199234Y-73301495D01*
X177194626Y-73292452D01*
X177155270Y-73238282D01*
X177155269Y-73238282D01*
X176522962Y-73870590D01*
X176505925Y-73807007D01*
X176440099Y-73692993D01*
X176347007Y-73599901D01*
X176232993Y-73534075D01*
X176169409Y-73517037D01*
X176801716Y-72884728D01*
X176747550Y-72845375D01*
X176558217Y-72748904D01*
X176356129Y-72683242D01*
X176146246Y-72650000D01*
X175933754Y-72650000D01*
X175723872Y-72683242D01*
X175723869Y-72683242D01*
X175521782Y-72748904D01*
X175332439Y-72845380D01*
X175278282Y-72884727D01*
X175278282Y-72884728D01*
X175910591Y-73517037D01*
X175847007Y-73534075D01*
X175732993Y-73599901D01*
X175639901Y-73692993D01*
X175574075Y-73807007D01*
X175557037Y-73870591D01*
X174886818Y-73200372D01*
X174853333Y-73139049D01*
X174853330Y-73139036D01*
X174850499Y-73126015D01*
X174850499Y-73102128D01*
X174844091Y-73042517D01*
X174815926Y-72967002D01*
X174793798Y-72907673D01*
X174793793Y-72907664D01*
X174707547Y-72792455D01*
X174707544Y-72792452D01*
X174592335Y-72706206D01*
X174592328Y-72706202D01*
X174457482Y-72655908D01*
X174457483Y-72655908D01*
X174397883Y-72649501D01*
X174397881Y-72649500D01*
X174397873Y-72649500D01*
X174397864Y-72649500D01*
X172602129Y-72649500D01*
X172602123Y-72649501D01*
X172542516Y-72655908D01*
X172407671Y-72706202D01*
X172407664Y-72706206D01*
X172292455Y-72792452D01*
X172292452Y-72792455D01*
X172206206Y-72907664D01*
X172206202Y-72907671D01*
X172155908Y-73042517D01*
X172149501Y-73102116D01*
X172149500Y-73102135D01*
X158786457Y-73102135D01*
X158793796Y-73092331D01*
X158844091Y-72957483D01*
X158850500Y-72897873D01*
X158850499Y-71102128D01*
X158844091Y-71042517D01*
X158793796Y-70907669D01*
X158793795Y-70907668D01*
X158793793Y-70907664D01*
X158707547Y-70792455D01*
X158707544Y-70792452D01*
X158592335Y-70706206D01*
X158592328Y-70706202D01*
X158457482Y-70655908D01*
X158457483Y-70655908D01*
X158397883Y-70649501D01*
X158397881Y-70649500D01*
X158397873Y-70649500D01*
X158397864Y-70649500D01*
X156602129Y-70649500D01*
X156602123Y-70649501D01*
X156542516Y-70655908D01*
X156407671Y-70706202D01*
X156407664Y-70706206D01*
X156292455Y-70792452D01*
X156292452Y-70792455D01*
X156206206Y-70907664D01*
X156206202Y-70907671D01*
X156155908Y-71042517D01*
X156149501Y-71102116D01*
X156149501Y-71102123D01*
X156149500Y-71102135D01*
X156149500Y-72897870D01*
X156149501Y-72897876D01*
X156155908Y-72957483D01*
X156206202Y-73092328D01*
X156206206Y-73092335D01*
X156292452Y-73207544D01*
X156292455Y-73207547D01*
X156407664Y-73293793D01*
X156407671Y-73293797D01*
X156539082Y-73342810D01*
X156595016Y-73384681D01*
X156619433Y-73450145D01*
X156604582Y-73518418D01*
X156583431Y-73546673D01*
X156469889Y-73660215D01*
X156344951Y-73832179D01*
X156248444Y-74021585D01*
X156248443Y-74021587D01*
X156248443Y-74021588D01*
X156215598Y-74122672D01*
X156182753Y-74223760D01*
X156149500Y-74433713D01*
X156149500Y-74646286D01*
X156173786Y-74799626D01*
X156182754Y-74856243D01*
X156196281Y-74897876D01*
X156248444Y-75058414D01*
X156344951Y-75247820D01*
X156469890Y-75419786D01*
X156620213Y-75570109D01*
X156792179Y-75695048D01*
X156792181Y-75695049D01*
X156792184Y-75695051D01*
X156801493Y-75699794D01*
X156852290Y-75747766D01*
X156869087Y-75815587D01*
X156846552Y-75881722D01*
X156801505Y-75920760D01*
X156792446Y-75925376D01*
X156792440Y-75925380D01*
X156738282Y-75964727D01*
X156738282Y-75964728D01*
X157370591Y-76597037D01*
X157307007Y-76614075D01*
X157192993Y-76679901D01*
X157099901Y-76772993D01*
X157034075Y-76887007D01*
X157017037Y-76950591D01*
X156384728Y-76318282D01*
X156384727Y-76318282D01*
X156345380Y-76372439D01*
X156248904Y-76561782D01*
X156183242Y-76763869D01*
X156183242Y-76763872D01*
X156150000Y-76973753D01*
X156150000Y-77186246D01*
X156183242Y-77396127D01*
X156183242Y-77396130D01*
X156248904Y-77598217D01*
X156345375Y-77787550D01*
X156384728Y-77841716D01*
X157017037Y-77209408D01*
X157034075Y-77272993D01*
X157099901Y-77387007D01*
X157192993Y-77480099D01*
X157307007Y-77545925D01*
X157370590Y-77562962D01*
X156738282Y-78195269D01*
X156738282Y-78195270D01*
X156792452Y-78234626D01*
X156792451Y-78234626D01*
X156801495Y-78239234D01*
X156852292Y-78287208D01*
X156869087Y-78355029D01*
X156846550Y-78421164D01*
X156801499Y-78460202D01*
X156792182Y-78464949D01*
X156620213Y-78589890D01*
X156469890Y-78740213D01*
X156344951Y-78912179D01*
X156248444Y-79101585D01*
X156182753Y-79303760D01*
X156149500Y-79513713D01*
X156149500Y-79726287D01*
X156182754Y-79936243D01*
X156184379Y-79941245D01*
X156248444Y-80138414D01*
X156344951Y-80327820D01*
X156469890Y-80499786D01*
X156620213Y-80650109D01*
X156792182Y-80775050D01*
X156800946Y-80779516D01*
X156851742Y-80827491D01*
X156868536Y-80895312D01*
X156845998Y-80961447D01*
X156800946Y-81000484D01*
X156792182Y-81004949D01*
X156620213Y-81129890D01*
X156469890Y-81280213D01*
X156344951Y-81452179D01*
X156248444Y-81641585D01*
X156182753Y-81843760D01*
X156176214Y-81885047D01*
X156149500Y-82053713D01*
X156149500Y-82266287D01*
X156182754Y-82476243D01*
X156219947Y-82590712D01*
X156248444Y-82678414D01*
X156344951Y-82867820D01*
X156469890Y-83039786D01*
X156620213Y-83190109D01*
X156792182Y-83315050D01*
X156800946Y-83319516D01*
X156851742Y-83367491D01*
X156868536Y-83435312D01*
X156845998Y-83501447D01*
X156800946Y-83540484D01*
X156792182Y-83544949D01*
X156620213Y-83669890D01*
X156469890Y-83820213D01*
X156344951Y-83992179D01*
X156248444Y-84181585D01*
X156182753Y-84383760D01*
X156175359Y-84430445D01*
X156149500Y-84593713D01*
X156149500Y-84806287D01*
X156182754Y-85016243D01*
X156238719Y-85188486D01*
X156248444Y-85218414D01*
X156344951Y-85407820D01*
X156469890Y-85579786D01*
X156620213Y-85730109D01*
X156792179Y-85855048D01*
X156792181Y-85855049D01*
X156792184Y-85855051D01*
X156981588Y-85951557D01*
X157183757Y-86017246D01*
X157393713Y-86050500D01*
X157393714Y-86050500D01*
X157606286Y-86050500D01*
X157606287Y-86050500D01*
X157716111Y-86033105D01*
X157821055Y-86016484D01*
X157821315Y-86018128D01*
X157883852Y-86021250D01*
X157930711Y-86050657D01*
X158535325Y-86655272D01*
X158535331Y-86655277D01*
X158641874Y-86726466D01*
X158711221Y-86755189D01*
X158760256Y-86775501D01*
X158760259Y-86775501D01*
X158760260Y-86775502D01*
X158885928Y-86800500D01*
X158885931Y-86800500D01*
X159014069Y-86800500D01*
X165829192Y-86800500D01*
X165896231Y-86820185D01*
X165916873Y-86836819D01*
X177113181Y-98033127D01*
X177146666Y-98094450D01*
X177149500Y-98120808D01*
X177149500Y-100079191D01*
X177129815Y-100146230D01*
X177113181Y-100166872D01*
X176573648Y-100706404D01*
X176512325Y-100739889D01*
X176458092Y-100737710D01*
X176457809Y-100739137D01*
X176258543Y-100699500D01*
X176258541Y-100699500D01*
X176061459Y-100699500D01*
X176061457Y-100699500D01*
X175868170Y-100737947D01*
X175868160Y-100737950D01*
X175686092Y-100813364D01*
X175686079Y-100813371D01*
X175522218Y-100922860D01*
X175522214Y-100922863D01*
X175382863Y-101062214D01*
X175382860Y-101062218D01*
X175273371Y-101226079D01*
X175273364Y-101226092D01*
X175197950Y-101408160D01*
X175197947Y-101408170D01*
X175161965Y-101589062D01*
X175129580Y-101650973D01*
X175068864Y-101685547D01*
X174999094Y-101681806D01*
X174942423Y-101640940D01*
X174917875Y-101584268D01*
X174887990Y-101395582D01*
X174824755Y-101200968D01*
X174731859Y-101018650D01*
X174611582Y-100853105D01*
X174611582Y-100853104D01*
X174466895Y-100708417D01*
X174301349Y-100588140D01*
X174119029Y-100495244D01*
X173924413Y-100432009D01*
X173870000Y-100423390D01*
X173870000Y-102066988D01*
X173812993Y-102034075D01*
X173685826Y-102000000D01*
X173554174Y-102000000D01*
X173427007Y-102034075D01*
X173370000Y-102066988D01*
X173370000Y-100423390D01*
X173315586Y-100432009D01*
X173120970Y-100495244D01*
X172938650Y-100588140D01*
X172773105Y-100708417D01*
X172773104Y-100708417D01*
X172628417Y-100853104D01*
X172628417Y-100853105D01*
X172508140Y-101018650D01*
X172415244Y-101200968D01*
X172352010Y-101395581D01*
X172322124Y-101584269D01*
X172292194Y-101647403D01*
X172232883Y-101684334D01*
X172163020Y-101683336D01*
X172104788Y-101644726D01*
X172078034Y-101589061D01*
X172042052Y-101408172D01*
X172042052Y-101408170D01*
X172042051Y-101408165D01*
X172037704Y-101397671D01*
X171966635Y-101226092D01*
X171966628Y-101226079D01*
X171857139Y-101062218D01*
X171857136Y-101062214D01*
X171717785Y-100922863D01*
X171717781Y-100922860D01*
X171553920Y-100813371D01*
X171553907Y-100813364D01*
X171371839Y-100737950D01*
X171371829Y-100737947D01*
X171178543Y-100699500D01*
X171178541Y-100699500D01*
X170981459Y-100699500D01*
X170981457Y-100699500D01*
X170788170Y-100737947D01*
X170788160Y-100737950D01*
X170606092Y-100813364D01*
X170606081Y-100813370D01*
X170570214Y-100837336D01*
X170503536Y-100858213D01*
X170436156Y-100839728D01*
X170389467Y-100787748D01*
X170386771Y-100781705D01*
X170376466Y-100756825D01*
X170376241Y-100756489D01*
X170305278Y-100650283D01*
X170305272Y-100650276D01*
X154914673Y-85259677D01*
X154852915Y-85218412D01*
X154808127Y-85188486D01*
X154689744Y-85139450D01*
X154689738Y-85139448D01*
X154564071Y-85114451D01*
X154564069Y-85114451D01*
X148725759Y-85114451D01*
X148658720Y-85094766D01*
X148638078Y-85078132D01*
X146150657Y-82590711D01*
X146117172Y-82529388D01*
X146117689Y-82481245D01*
X146116484Y-82481055D01*
X146147248Y-82286819D01*
X146150500Y-82266287D01*
X146150500Y-82053713D01*
X146117246Y-81843757D01*
X146051557Y-81641588D01*
X145955051Y-81452184D01*
X145955049Y-81452181D01*
X145955048Y-81452179D01*
X145830109Y-81280213D01*
X145679786Y-81129890D01*
X145507820Y-81004951D01*
X145507115Y-81004591D01*
X145499054Y-81000485D01*
X145448259Y-80952512D01*
X145431463Y-80884692D01*
X145453999Y-80818556D01*
X145499054Y-80779515D01*
X145507816Y-80775051D01*
X145541608Y-80750500D01*
X145679786Y-80650109D01*
X145679788Y-80650106D01*
X145679792Y-80650104D01*
X145830104Y-80499792D01*
X145830106Y-80499788D01*
X145830109Y-80499786D01*
X145955048Y-80327820D01*
X145955047Y-80327820D01*
X145955051Y-80327816D01*
X146051557Y-80138412D01*
X146117246Y-79936243D01*
X146150500Y-79726287D01*
X146150500Y-79513713D01*
X146117246Y-79303757D01*
X146051557Y-79101588D01*
X145955051Y-78912184D01*
X145955049Y-78912181D01*
X145955048Y-78912179D01*
X145830109Y-78740213D01*
X145679786Y-78589890D01*
X145507820Y-78464951D01*
X145507115Y-78464591D01*
X145499054Y-78460485D01*
X145448259Y-78412512D01*
X145431463Y-78344692D01*
X145453999Y-78278556D01*
X145499054Y-78239515D01*
X145507816Y-78235051D01*
X145562572Y-78195269D01*
X145679786Y-78110109D01*
X145679788Y-78110106D01*
X145679792Y-78110104D01*
X145830104Y-77959792D01*
X145830106Y-77959788D01*
X145830109Y-77959786D01*
X145955048Y-77787820D01*
X145955047Y-77787820D01*
X145955051Y-77787816D01*
X146051557Y-77598412D01*
X146117246Y-77396243D01*
X146150500Y-77186287D01*
X146150500Y-76973713D01*
X146117246Y-76763757D01*
X146051557Y-76561588D01*
X145955051Y-76372184D01*
X145955049Y-76372181D01*
X145955048Y-76372179D01*
X145830109Y-76200213D01*
X145679786Y-76049890D01*
X145507820Y-75924951D01*
X145499600Y-75920763D01*
X145499054Y-75920485D01*
X145448259Y-75872512D01*
X145431463Y-75804692D01*
X145453999Y-75738556D01*
X145499054Y-75699515D01*
X145507816Y-75695051D01*
X145529789Y-75679086D01*
X145679786Y-75570109D01*
X145679788Y-75570106D01*
X145679792Y-75570104D01*
X145830104Y-75419792D01*
X145830106Y-75419788D01*
X145830109Y-75419786D01*
X145955048Y-75247820D01*
X145955047Y-75247820D01*
X145955051Y-75247816D01*
X146051557Y-75058412D01*
X146117246Y-74856243D01*
X146150500Y-74646287D01*
X146150500Y-74433713D01*
X146117246Y-74223757D01*
X146051557Y-74021588D01*
X145955051Y-73832184D01*
X145955049Y-73832181D01*
X145955048Y-73832179D01*
X145830109Y-73660213D01*
X145679786Y-73509890D01*
X145507820Y-73384951D01*
X145507115Y-73384591D01*
X145499054Y-73380485D01*
X145448259Y-73332512D01*
X145431463Y-73264692D01*
X145453999Y-73198556D01*
X145499054Y-73159515D01*
X145507816Y-73155051D01*
X145580660Y-73102127D01*
X145679786Y-73030109D01*
X145679788Y-73030106D01*
X145679792Y-73030104D01*
X145830104Y-72879792D01*
X145830106Y-72879788D01*
X145830109Y-72879786D01*
X145955048Y-72707820D01*
X145955047Y-72707820D01*
X145955051Y-72707816D01*
X146051557Y-72518412D01*
X146117246Y-72316243D01*
X146150500Y-72106287D01*
X146150500Y-71893713D01*
X146135382Y-71798268D01*
X146144336Y-71728979D01*
X146170171Y-71691195D01*
X147774548Y-70086819D01*
X147835871Y-70053334D01*
X147862229Y-70050500D01*
X148600249Y-70050500D01*
X148667288Y-70070185D01*
X148699515Y-70100188D01*
X148742451Y-70157542D01*
X148742454Y-70157546D01*
X148742457Y-70157548D01*
X148857664Y-70243793D01*
X148857671Y-70243797D01*
X148992517Y-70294091D01*
X148992516Y-70294091D01*
X148999444Y-70294835D01*
X149052127Y-70300500D01*
X150147872Y-70300499D01*
X150207483Y-70294091D01*
X150342331Y-70243796D01*
X150457546Y-70157546D01*
X150543796Y-70042331D01*
X150594091Y-69907483D01*
X150600500Y-69847873D01*
X150600499Y-68752128D01*
X150594091Y-68692517D01*
X150593075Y-68689794D01*
X150543797Y-68557671D01*
X150543793Y-68557664D01*
X150457547Y-68442455D01*
X150457544Y-68442452D01*
X150342335Y-68356206D01*
X150342328Y-68356202D01*
X150207482Y-68305908D01*
X150207483Y-68305908D01*
X150147883Y-68299501D01*
X150147881Y-68299500D01*
X150147873Y-68299500D01*
X150147864Y-68299500D01*
X149052129Y-68299500D01*
X149052123Y-68299501D01*
X148992516Y-68305908D01*
X148857671Y-68356202D01*
X148857664Y-68356206D01*
X148742457Y-68442451D01*
X148742451Y-68442457D01*
X148699515Y-68499812D01*
X148643581Y-68541682D01*
X148600249Y-68549500D01*
X147426076Y-68549500D01*
X147397242Y-68555234D01*
X147397243Y-68555235D01*
X147281093Y-68578339D01*
X147281083Y-68578342D01*
X147201081Y-68611479D01*
X147201082Y-68611480D01*
X147144505Y-68634915D01*
X147082835Y-68676121D01*
X147062373Y-68689794D01*
X147058298Y-68692517D01*
X147021585Y-68717047D01*
X147021581Y-68717050D01*
X145108807Y-70629824D01*
X145047484Y-70663309D01*
X145001728Y-70664616D01*
X144906292Y-70649500D01*
X144906287Y-70649500D01*
X144693713Y-70649500D01*
X144645042Y-70657208D01*
X144483760Y-70682753D01*
X144281585Y-70748444D01*
X144092179Y-70844951D01*
X143920213Y-70969890D01*
X143769890Y-71120213D01*
X143644951Y-71292179D01*
X143548444Y-71481585D01*
X143482753Y-71683760D01*
X143449500Y-71893713D01*
X141000500Y-71893713D01*
X141000500Y-68125211D01*
X141020185Y-68058172D01*
X141072989Y-68012417D01*
X141124639Y-68001211D01*
X227775329Y-68099790D01*
G37*
%TD.AperFunction*%
%TD*%
M02*
